<svg xmlns="http://www.w3.org/2000/svg" width="512" height="417"><path d="M0 0 C0 2.31 0 4.62 0 7 C-15.64951817 13.31892879 -31.35072882 19.48009056 -47.1289978 25.47000122 C-53.10491218 27.73910775 -59.07783186 30.0160712 -65.05078125 32.29296875 C-66.28399612 32.76298813 -67.517211 33.23300751 -68.78779602 33.7172699 C-82.10234111 38.7943654 -95.39596711 43.92551386 -108.6875 49.0625 C-113.42837012 50.89457084 -118.16924931 52.72661819 -122.91015625 54.55859375 C-124.65833649 55.23417328 -124.65833649 55.23417328 -126.4418335 55.92340088 C-136.93133383 59.97591047 -147.42622958 64.01431745 -157.92285156 68.04833984 C-162.3254432 69.74035153 -166.72712324 71.43469837 -171.12792969 73.13134766 C-188.28512469 79.74345251 -188.28512469 79.74345251 -196.61297607 82.86053467 C-199.56022067 83.96414942 -202.50410465 85.07655632 -205.44769287 86.18988037 C-207.35745556 86.90742533 -209.27262481 87.61053041 -211.18798828 88.31298828 C-220.91397842 91.99739567 -225.31054603 97.13079534 -231.1875 105.4375 C-231.74977295 106.22431152 -232.3120459 107.01112305 -232.89135742 107.82177734 C-234.03994898 109.430033 -235.18652349 111.03973114 -236.33105469 112.65087891 C-237.90632732 114.86815118 -239.48701624 117.08142135 -241.0703125 119.29296875 C-243.38434158 122.52571507 -245.69366526 125.76176025 -248 129 C-247.40203613 128.75056641 -246.80407227 128.50113281 -246.18798828 128.24414062 C-231.32457757 122.06699474 -216.36702749 116.19303275 -201.3125 110.5 C-185.81787462 104.6398737 -170.39123989 98.62640157 -155 92.5 C-140.04339558 86.54788954 -125.05714016 80.69307298 -110 75 C-94.77654541 69.24393575 -79.62470759 63.3231349 -64.5 57.3125 C-34.1529874 45.26835714 -34.1529874 45.26835714 -23.5769043 41.16854858 C-22.1280705 40.60527609 -20.68059525 40.03849448 -19.23461914 39.46792603 C-17.27198569 38.69421342 -15.30485135 37.93334122 -13.3359375 37.17578125 C-12.24845215 36.75208252 -11.1609668 36.32838379 -10.04052734 35.8918457 C-6.8533967 34.95699841 -4.30303668 34.75413214 -1 35 C0 36 0 36 0.375 38.875 C0.25125 39.90625 0.1275 40.9375 0 42 C-4.34301276 45.29716474 -9.71215478 46.95922528 -14.765625 48.88671875 C-15.73405334 49.2604512 -16.70248169 49.63418365 -17.70025635 50.01924133 C-20.88191806 51.24615735 -24.06597231 52.46673881 -27.25 53.6875 C-29.48132729 54.54698756 -31.71244473 55.40702007 -33.94335938 56.26757812 C-37.34882692 57.5811603 -40.75440954 58.89443317 -44.16064453 60.20602417 C-54.28635217 64.10533835 -64.39522107 68.04684081 -74.5 72 C-85.51421099 76.30623495 -96.53376449 80.59827295 -107.5625 84.8671875 C-108.6312587 85.28089096 -109.7000174 85.69459442 -110.80116272 86.12083435 C-112.96176938 86.95713884 -115.1223783 87.79343747 -117.2829895 88.62973022 C-134.56320758 95.3187147 -151.83255278 102.02529296 -169 109 C-168.08311401 109.70141113 -168.08311401 109.70141113 -167.14770508 110.41699219 C-166.34228271 111.03735352 -165.53686035 111.65771484 -164.70703125 112.296875 C-163.91014893 112.90885742 -163.1132666 113.52083984 -162.29223633 114.15136719 C-154.64879338 120.3156179 -150.74364159 127.51210657 -149.6171875 137.33984375 C-148.73958158 164.28234536 -159.94361345 190.67690122 -178.01171875 210.33203125 C-196.00172256 229.27655056 -220.75167522 242.51386206 -247.234375 243.30078125 C-249.40616932 243.31990438 -251.57814898 243.32342836 -253.75 243.3125 C-255.46243896 243.30621582 -255.46243896 243.30621582 -257.20947266 243.29980469 C-265.82595914 243.18480402 -273.68170803 242.37518597 -282 240 C-282.99128906 239.73316406 -283.98257813 239.46632813 -285.00390625 239.19140625 C-313.16274638 230.75500275 -334.0743211 211.05255831 -348.22265625 185.8046875 C-349 184 -349 184 -349 181 C-349.83660156 181.58007812 -350.67320312 182.16015625 -351.53515625 182.7578125 C-387.50917813 207.15230347 -438.06591526 206.88415239 -480 206 C-481.14984375 205.97679687 -482.2996875 205.95359375 -483.484375 205.9296875 C-486.78089748 205.85687275 -490.07687243 205.77433406 -493.37286377 205.68060303 C-495.34528184 205.62582533 -497.31790825 205.57872297 -499.29052734 205.53173828 C-500.5017627 205.49290527 -501.71299805 205.45407227 -502.9609375 205.4140625 C-504.05196777 205.3826416 -505.14299805 205.3512207 -506.26708984 205.31884766 C-509 205 -509 205 -512 203 C-512.25 199.9375 -512.25 199.9375 -512 197 C-511 196 -511 196 -509.10317993 195.89320374 C-508.26942841 195.90145676 -507.43567688 195.90970978 -506.57666016 195.91821289 C-505.62732605 195.9246431 -504.67799194 195.9310733 -503.69989014 195.93769836 C-502.65681702 195.94923447 -501.6137439 195.96077057 -500.5390625 195.97265625 C-498.30713273 195.98724994 -496.07519882 196.00122162 -493.84326172 196.01464844 C-492.07592682 196.02715637 -492.07592682 196.02715637 -490.27288818 196.03991699 C-418.98587215 199.42418636 -418.98587215 199.42418636 -356 173 C-354.08347987 166.63261405 -357.09117395 159.078702 -359 153 C-370.67711471 152.0582972 -377.8855959 157.82838113 -386.87963867 164.46606445 C-391.34346588 167.69473421 -395.53986013 169.93485908 -401 171 C-401.8219133 171.17062958 -402.6438266 171.34125916 -403.49064636 171.51705933 C-408.08270881 172.14899727 -412.58240757 172.13926638 -417.2121582 172.12939453 C-418.22579941 172.13114685 -419.23944061 172.13289917 -420.28379822 172.13470459 C-423.62281014 172.13909408 -426.96176882 172.13619643 -430.30078125 172.1328125 C-432.62151601 172.13348611 -434.94225071 172.13445661 -437.26298523 172.13571167 C-442.11909662 172.13718448 -446.97518958 172.13504646 -451.83129883 172.13037109 C-458.07054506 172.12465815 -464.30974843 172.12796532 -470.54899311 172.13394356 C-475.33660712 172.13754685 -480.12421087 172.13641193 -484.91182518 172.13381577 C-487.21364535 172.13314667 -489.51546644 172.1339743 -491.81728554 172.13629532 C-495.0231539 172.13881975 -498.22895141 172.13498495 -501.43481445 172.12939453 C-502.39426971 172.13141876 -503.35372498 172.13344299 -504.34225464 172.13552856 C-505.64391823 172.13129883 -505.64391823 172.13129883 -506.97187805 172.12698364 C-507.73009511 172.12660662 -508.48831217 172.12622959 -509.2695055 172.12584114 C-511 172 -511 172 -512 171 C-512.25 168.0625 -512.25 168.0625 -512 165 C-508.93587762 162.95725175 -508.32771456 162.74945937 -504.87890625 162.74171448 C-504.04084946 162.73488647 -503.20279266 162.72805847 -502.33934021 162.72102356 C-501.42298294 162.72357651 -500.50662567 162.72612946 -499.5625 162.72875977 C-498.59462051 162.72353302 -497.62674103 162.71830627 -496.62953186 162.71292114 C-494.52445093 162.70266972 -492.41934457 162.69689875 -490.3142395 162.69503975 C-486.97556741 162.69137946 -483.63719329 162.67465864 -480.29858398 162.65428162 C-470.8047441 162.59885893 -461.31085894 162.56828143 -451.81689453 162.54370117 C-446.01022975 162.52776087 -440.20377323 162.49746563 -434.3972168 162.45893669 C-432.19020817 162.44733456 -429.98316216 162.44135676 -427.77612305 162.44125557 C-424.67474884 162.44106194 -421.57394168 162.42267786 -418.47265625 162.40063477 C-417.12241112 162.40750053 -417.12241112 162.40750053 -415.74488831 162.414505 C-404.96551758 162.29366414 -396.58128477 159.43223259 -388 153 C-378.34482636 145.79304789 -371.19809102 142.31242493 -359 143 C-359 141.02 -359 139.04 -359 137 C-359.72703125 137.06960937 -360.4540625 137.13921875 -361.203125 137.2109375 C-371.4095206 137.76051265 -378.35322209 134.50548414 -386.4453125 128.48046875 C-387.33307373 127.82087158 -387.33307373 127.82087158 -388.23876953 127.14794922 C-389.36799599 126.29171568 -390.48273505 125.41582357 -391.57763672 124.51611328 C-402.92391541 115.73023233 -418.69309911 117.55921348 -432.1953125 117.55859375 C-434.43782407 117.54680852 -436.68032782 117.53344151 -438.92282104 117.51856995 C-444.79092834 117.48256842 -450.65896627 117.46222899 -456.52716064 117.44702148 C-465.95391424 117.4220741 -475.38051499 117.38268808 -484.80712509 117.32512093 C-488.09883955 117.30876258 -491.39040929 117.3050133 -494.68215942 117.30210876 C-496.68540707 117.29233982 -498.68865239 117.28207777 -500.69189453 117.27124023 C-502.06946678 117.27506966 -502.06946678 117.27506966 -503.47486877 117.27897644 C-504.31010574 117.27214844 -505.14534271 117.26532043 -506.00588989 117.25828552 C-507.09695888 117.25583407 -507.09695888 117.25583407 -508.21006966 117.25333309 C-510 117 -510 117 -512 115 C-512.125 111.875 -512.125 111.875 -512 109 C-508.53888252 107.26944126 -504.53398634 107.84352109 -500.72363281 107.83886719 C-499.76071823 107.83390228 -498.79780365 107.82893738 -497.80570984 107.82382202 C-494.60484102 107.80916444 -491.40402194 107.80238874 -488.203125 107.796875 C-485.9750773 107.7911219 -483.74702961 107.78536419 -481.51898193 107.77960205 C-476.83475514 107.76907872 -472.15054555 107.76324629 -467.46630859 107.75976562 C-461.49494101 107.75430983 -455.52380479 107.73035026 -449.55250931 107.70179367 C-444.94192878 107.68305739 -440.33140242 107.67795564 -435.72078705 107.67642975 C-433.5218048 107.67342214 -431.32282308 107.6654584 -429.12387848 107.65224457 C-398.42803212 107.48111539 -398.42803212 107.48111539 -385 117 C-383.700625 117.91072266 -383.700625 117.91072266 -382.375 118.83984375 C-381.50875 119.44957031 -380.6425 120.05929688 -379.75 120.6875 C-372.48431578 125.7870175 -367.87345312 127.47348465 -359 127 C-358.46615306 124.46045692 -357.94769806 121.9193065 -357.4375 119.375 C-357.21030273 118.30572266 -357.21030273 118.30572266 -356.97851562 117.21484375 C-356.12994993 112.91281304 -355.61920143 109.27726441 -357 105 C-358.69280642 103.71151265 -358.69280642 103.71151265 -361 103 C-361.94230469 102.48824219 -362.88460937 101.97648437 -363.85546875 101.44921875 C-376.62354136 94.69845586 -389.4837672 91.25574459 -403.6875 88.8125 C-404.58130371 88.6575708 -405.47510742 88.5026416 -406.39599609 88.34301758 C-409.59150714 87.83176921 -412.78910688 87.40439677 -416 87 C-416.69294159 86.91006775 -417.38588318 86.8201355 -418.099823 86.72747803 C-436.91090674 84.38015118 -455.77308917 84.83905852 -474.6875 85 C-480.34734827 85.04743747 -486.00709326 85.08792868 -491.66709328 85.11187744 C-493.91132798 85.12478212 -496.15521663 85.1497477 -498.39933777 85.17529297 C-499.76321112 85.18255094 -501.12708758 85.18925527 -502.4909668 85.1953125 C-503.67925583 85.20578613 -504.86754486 85.21625977 -506.09184265 85.22705078 C-509 85 -509 85 -512 83 C-512.1875 79.875 -512.1875 79.875 -512 77 C-507.77734477 75.41020419 -504.27258185 74.74487245 -499.76806641 74.7253418 C-498.5504361 74.71580978 -497.33280579 74.70627777 -496.07827759 74.69645691 C-494.76596161 74.69736832 -493.45364563 74.69827972 -492.1015625 74.69921875 C-490.70706051 74.69531674 -489.31255968 74.69097908 -487.9180603 74.68623352 C-484.98097928 74.67877128 -482.04401825 74.67905335 -479.10693359 74.68432617 C-476.16536841 74.68887696 -473.22422448 74.68235449 -470.28271484 74.66381836 C-381.64991751 74.11048197 -381.64991751 74.11048197 -354 96 C-353.01 96.66 -352.02 97.32 -351 98 C-350.60361328 96.71029297 -350.60361328 96.71029297 -350.19921875 95.39453125 C-346.87057471 85.97240854 -341.48956333 77.54192495 -335 70 C-334.28714844 69.16597656 -333.57429687 68.33195312 -332.83984375 67.47265625 C-318.09655324 50.65569538 -299.69147607 39.61172515 -278 34 C-276.69289063 33.6596875 -276.69289063 33.6596875 -275.359375 33.3125 C-252.70470053 28.54309485 -226.35614248 31.7232998 -206 43 C-198.88860163 47.81249349 -193.62094295 53.72269645 -191 62 C-190.60173017 64.66031152 -190.31190914 67.32758695 -190 70 C-189.36999588 69.74616547 -188.73999176 69.49233093 -188.09089661 69.23080444 C-172.3410594 62.8915636 -156.54170773 56.69796358 -140.6875 50.625 C-138.43156931 49.75930041 -136.17571174 48.89341023 -133.91992188 48.02734375 C-129.25857986 46.2378784 -124.59693246 44.44921212 -119.93505859 42.66113281 C-110.02393879 38.85895724 -100.11671487 35.0466586 -90.20935059 31.23471069 C-87.01109021 30.00426666 -83.81269882 28.77416387 -80.61425781 27.54418945 C-70.40642135 23.61870024 -60.19903268 19.69205429 -49.99276733 15.76248169 C-45.14333846 13.89543544 -40.29372277 12.02887473 -35.4440918 10.16235352 C-33.12010467 9.26774063 -30.7962103 8.37288675 -28.47241211 7.4777832 C-25.26178648 6.2410995 -22.05084967 5.00522712 -18.83984375 3.76953125 C-17.88311264 3.4007637 -16.92638153 3.03199615 -15.94065857 2.65205383 C-15.0655513 2.31546249 -14.19044403 1.97887115 -13.28881836 1.63208008 C-12.14841347 1.19295036 -12.14841347 1.19295036 -10.98497009 0.74494934 C-6.77422995 -0.83532036 -4.41451219 -0.88290244 0 0 Z M-327.69140625 75.02734375 C-334.24401999 82.93690539 -338.8470274 91.64504282 -343 101 C-343.42152344 101.93328125 -343.84304688 102.8665625 -344.27734375 103.828125 C-353.44295596 126.37898976 -351.88083212 152.91985496 -342.73046875 175.14453125 C-332.06125206 199.60431078 -313.48851834 217.64935573 -289 228 C-266.04509432 236.63370894 -241.09549238 236.78435683 -218.29296875 227.5078125 C-192.90015561 215.88073554 -173.55399698 195.93540442 -163.75 169.6484375 C-160.06872268 158.30685517 -155.71401577 142.79192279 -160.125 131.125 C-164.68971883 123.51713528 -171.00085842 117.04450979 -179 113 C-182.2609199 113.17361471 -182.2609199 113.17361471 -185 114 C-183.85755618 117.42733147 -182.97591554 117.98324854 -180.1875 120.125 C-174.7460044 124.8337987 -172.44611712 129.10112226 -171.625 136.27734375 C-170.91468286 157.07631749 -178.3457704 175.72593069 -191 192 C-191.433125 192.59683594 -191.86625 193.19367188 -192.3125 193.80859375 C-203.7998298 208.61220626 -223.48897409 217.87704919 -241.68554688 220.71875 C-263.77078177 223.40252538 -286.56921328 218.91708381 -304.4375 205.125 C-305.98080063 203.77526589 -307.50183761 202.39966728 -309 201 C-309.82757813 200.26265625 -310.65515625 199.5253125 -311.5078125 198.765625 C-327.38288255 183.91005486 -336.01698925 163.56754277 -337.28125 141.99609375 C-337.84910006 117.79148485 -329.86800025 95.76163515 -313.1640625 78.16796875 C-312.09285156 77.09482422 -312.09285156 77.09482422 -311 76 C-310.38898438 75.37738281 -309.77796875 74.75476563 -309.1484375 74.11328125 C-293.27239223 59.08170648 -271.10729488 53.13104745 -249.71875 53.6953125 C-235.99435644 54.38153218 -218.37253566 58.02133305 -208.671875 68.51953125 C-207.24482736 70.63676314 -206.03553083 72.67005563 -205 75 C-202.03 74.505 -202.03 74.505 -199 74 C-199.33856967 65.5865437 -200.77266777 59.90114286 -206.875 53.9375 C-243.46840681 24.92581384 -300.06531041 43.2354887 -327.69140625 75.02734375 Z M-309 86 C-309.73605469 86.77859375 -310.47210938 87.5571875 -311.23046875 88.359375 C-324.87399314 104.08769325 -330.38700366 124.46339746 -329 145 C-326.22243113 166.7612679 -315.96814628 183.95399299 -299.42578125 198.125 C-283.11113193 210.73535696 -263.12107255 215.2221284 -242.81396484 212.73193359 C-223.75839997 209.52653641 -206.38324887 199.07948604 -194.8046875 183.609375 C-184.66463163 168.94799552 -178.81598394 153.01070585 -180 135 C-181.76402299 129.04642241 -186.27531972 125.74528398 -191 122 C-191.64066406 121.41605469 -192.28132812 120.83210938 -192.94140625 120.23046875 C-194.89918421 118.78144875 -194.89918421 118.78144875 -197.06347656 119.21362305 C-201.16995882 120.3133054 -205.07959555 121.82170221 -209.04296875 123.3515625 C-210.36667229 123.85724258 -210.36667229 123.85724258 -211.71711731 124.37313843 C-214.54201062 125.45339327 -217.36474962 126.53915965 -220.1875 127.625 C-222.03567258 128.33238332 -223.8839787 129.03941782 -225.73242188 129.74609375 C-227.09622482 130.26837555 -227.09622482 130.26837555 -228.48757935 130.8012085 C-230.31298183 131.50022275 -232.1387257 132.19834617 -233.96481323 132.89556885 C-238.3962151 134.59302396 -242.81068172 136.32044872 -247.20166016 138.12011719 C-248.02056229 138.4515976 -248.83946442 138.783078 -249.68318176 139.12460327 C-251.21666695 139.7472558 -252.74606091 140.3801213 -254.27030945 141.02505493 C-258.23024738 142.62333979 -260.88505805 143.40123678 -265 142 C-265.39927578 138.16695249 -265.23504469 136.3760715 -263.1640625 133.0625 C-262.32617188 132.051875 -261.48828125 131.04125 -260.625 130 C-259.69440046 128.84944357 -258.76608085 127.69703999 -257.83984375 126.54296875 C-257.36401855 125.95563965 -256.88819336 125.36831055 -256.39794922 124.76318359 C-254.22282344 122.01977487 -252.20343751 119.17388395 -250.1875 116.3125 C-249.36479066 115.15219671 -248.54186706 113.99204533 -247.71875 112.83203125 C-247.28820312 112.22439941 -246.85765625 111.61676758 -246.4140625 110.99072266 C-243.68608295 107.15026249 -240.93834589 103.32409996 -238.1875 99.5 C-237.37865356 98.3694519 -237.37865356 98.3694519 -236.5534668 97.21606445 C-235.05237785 95.13112809 -233.53064761 93.06329434 -232 91 C-231.58411621 90.41702148 -231.16823242 89.83404297 -230.73974609 89.23339844 C-227.73427641 85.25940488 -224.93012612 83.79592401 -220.25 82.25 C-215.79468806 81.13063433 -215.79468806 81.13063433 -213 78 C-216.28896581 71.0931718 -222.14321565 68.79564911 -229 66 C-258.1715765 56.26356179 -287.98197072 63.67432399 -309 86 Z " fill="#000000" transform="translate(512,69)"></path><path d="M0 0 C2.5625 0.4375 2.5625 0.4375 4.0625 2.2890625 C6.20669834 6.78964548 7.11390661 11.38590719 8.125 16.25 C8.43727539 17.66055664 8.43727539 17.66055664 8.75585938 19.09960938 C11.8215726 33.46713687 12.97710133 47.60248209 12.9375 62.25 C12.93662384 63.05087036 12.93574768 63.85174072 12.93484497 64.67687988 C12.72581419 123.09266493 -11.30755659 175.57232202 -52.4609375 216.47265625 C-86.08284292 249.03619326 -135.19887076 271.37199741 -182.265625 271.640625 C-183.08836914 271.64763931 -183.91111328 271.65465363 -184.75878906 271.66188049 C-187.40174887 271.67930527 -190.04448485 271.68573336 -192.6875 271.6875 C-194.0397467 271.68851212 -194.0397467 271.68851212 -195.41931152 271.68954468 C-208.32817017 271.67415987 -220.80888094 271.34768322 -233.4375 268.4375 C-234.24944824 268.26057617 -235.06139648 268.08365234 -235.89794922 267.90136719 C-262.02703994 262.14571053 -287.58609283 252.07428678 -309.4375 236.4375 C-310.43136719 235.73367188 -311.42523438 235.02984375 -312.44921875 234.3046875 C-341.24790886 213.29858412 -363.91345028 186.4109373 -379.5 154.375 C-379.89461426 153.57739258 -380.28922852 152.77978516 -380.69580078 151.95800781 C-382.73515368 147.64163651 -384.03980622 144.32456693 -383.4375 139.4375 C-382.4375 138.4375 -382.4375 138.4375 -379.375 138.375 C-378.405625 138.395625 -377.43625 138.41625 -376.4375 138.4375 C-375.98761719 139.37207031 -375.53773438 140.30664062 -375.07421875 141.26953125 C-355.7249738 180.99396203 -329.22529012 214.15851911 -290.4375 236.4375 C-289.50043213 236.97890625 -289.50043213 236.97890625 -288.54443359 237.53125 C-244.75551464 262.53488551 -191.99534888 268.52296031 -143.34765625 255.89501953 C-93.78725791 242.3576885 -50.14365244 209.94956198 -24.51953125 165.19921875 C-13.41298387 145.30882533 -5.28741068 124.72820871 -0.4375 102.4375 C-0.25815918 101.62361816 -0.07881836 100.80973633 0.10595703 99.97119141 C6.08658076 71.29151713 4.54804906 37.88648562 -3.8581543 9.93212891 C-4.46838906 7.30449349 -4.6823792 5.12406089 -4.4375 2.4375 C-2.4375 0.4375 -2.4375 0.4375 0 0 Z " fill="#000000" transform="translate(443.4375,145.5625)"></path><path d="M0 0 C3.125 -0.1875 3.125 -0.1875 6 0 C8.82901246 5.83584856 10.04408262 11.50191114 11.125 17.875 C11.29386719 18.81730469 11.46273438 19.75960937 11.63671875 20.73046875 C20.32381016 70.18532774 9.53921342 122.56127873 -19 164 C-26.15244454 174.08628908 -34.25477842 183.26840026 -43 192 C-43.69738281 192.74378906 -44.39476562 193.48757813 -45.11328125 194.25390625 C-62.94113339 212.96840112 -86.10325267 225.7575302 -110 235 C-110.65210449 235.25861816 -111.30420898 235.51723633 -111.97607422 235.78369141 C-155.65984047 252.87116083 -207.69535833 249.16031912 -250.28271484 231.02075195 C-270.23763569 222.18002626 -288.26828212 210.14383605 -304 195 C-304.55510254 194.47599609 -305.11020508 193.95199219 -305.68212891 193.41210938 C-321.49185011 178.43845899 -347.86028715 150.75502273 -349.1875 127.75 C-349 125 -349 125 -348 124 C-346.00041636 123.95919217 -343.99954746 123.95745644 -342 124 C-341.74420166 124.49701416 -341.48840332 124.99402832 -341.22485352 125.50610352 C-330.57671477 146.13109046 -319.4588821 164.71988007 -303.36914062 181.56347656 C-302.04194932 182.95598613 -300.7316017 184.36448908 -299.421875 185.7734375 C-270.2057199 216.30169538 -225.59190314 235.2384494 -183.4921875 236.30078125 C-180.953195 236.32003599 -178.41404121 236.3236079 -175.875 236.3125 C-175.20601685 236.31067719 -174.53703369 236.30885437 -173.84777832 236.30697632 C-135.18846694 236.13096029 -97.6798218 223.71238423 -67 200 C-65.66001953 198.99453125 -65.66001953 198.99453125 -64.29296875 197.96875 C-26.64077543 168.61471623 -4.25775587 125.72180341 3 79 C3.19335938 77.80632812 3.38671875 76.61265625 3.5859375 75.3828125 C4.3713121 68.71293983 4.24278635 61.95757044 4.25 55.25 C4.25133942 54.51589905 4.25267883 53.7817981 4.25405884 53.02545166 C4.24872346 39.52253562 2.86445326 26.76185488 0.0625 13.56640625 C-0.08405029 12.86725098 -0.23060059 12.1680957 -0.3815918 11.44775391 C-0.78106953 9.58412804 -1.21150494 7.72721122 -1.64453125 5.87109375 C-2 3 -2 3 0 0 Z " fill="#000000" transform="translate(425,154)"></path><path d="M0 0 C0.88207123 0.00182281 1.76414246 0.00364563 2.67294312 0.00552368 C15.76615337 0.05107431 28.55040238 0.43230443 41.375 3.3125 C42.15423828 3.48410645 42.93347656 3.65571289 43.73632812 3.83251953 C61.35124484 7.83558448 78.53389692 13.66791255 94.43945312 22.26660156 C96.40390383 23.32811857 98.38109129 24.36297486 100.359375 25.3984375 C124.47831194 38.25580804 156.80620584 61.91145196 168.375 87.3125 C168.05606016 90.30943474 167.54678863 91.14071137 165.375 93.3125 C163.1328125 93.39453125 163.1328125 93.39453125 160.375 92.3125 C158.06589534 90.08213253 156.18370308 87.55635199 154.25 85 C153.09658595 83.53032198 151.94029941 82.06289408 150.78125 80.59765625 C150.20761719 79.86949707 149.63398438 79.14133789 149.04296875 78.39111328 C134.78002695 60.61671538 117.06186713 46.62005984 97.375 35.3125 C96.75463867 34.95446289 96.13427734 34.59642578 95.49511719 34.22753906 C50.70386757 8.64838561 -1.9896735 3.48605338 -51.625 16.3125 C-91.12488551 27.10871583 -127.41271872 51.01949687 -152.625 83.3125 C-153.04652344 83.84697754 -153.46804687 84.38145508 -153.90234375 84.93212891 C-165.24410513 99.41643322 -174.38658901 115.32174192 -181.3203125 132.35546875 C-182.625 135.3125 -182.625 135.3125 -184.625 137.3125 C-187.75 137.4375 -187.75 137.4375 -190.625 137.3125 C-192.95986952 129.84522143 -189.40370639 124.36147303 -186.0625 117.6875 C-185.77111145 117.09523621 -185.4797229 116.50297241 -185.17950439 115.89276123 C-176.77888315 98.85284197 -166.34774382 83.40691464 -153.625 69.3125 C-152.903125 68.47074219 -152.18125 67.62898438 -151.4375 66.76171875 C-140.90123386 54.61789729 -128.88590587 44.34905544 -115.625 35.3125 C-115.02558594 34.89935547 -114.42617187 34.48621094 -113.80859375 34.06054688 C-80.04741091 11.05481645 -40.60974925 -0.17414743 0 0 Z " fill="#000000" transform="translate(249.625,-0.3125)"></path><path d="M0 0 C2.03271156 1.75787909 4.04785678 3.53375713 6.0625 5.3125 C6.90683594 6.034375 7.75117188 6.75625 8.62109375 7.5 C13.56777617 11.7709973 17.93391854 16.25007273 22.0625 21.3125 C22.50980469 21.8580957 22.95710938 22.40369141 23.41796875 22.96582031 C24.93442331 24.82357665 26.43783192 26.69117295 27.9375 28.5625 C28.42653809 29.16529785 28.91557617 29.7680957 29.41943359 30.38916016 C33.6408903 35.72661704 33.6408903 35.72661704 34.0625 39.3125 C32.0625 42.3125 32.0625 42.3125 29.30078125 42.93359375 C24.49111998 42.01111348 23.02552884 39.21169525 20.25 35.375 C-8.58664609 -2.09620517 -50.47951159 -24.95417025 -96.98632812 -31.99780273 C-132.01258291 -36.54778191 -167.36996486 -30.12149899 -198.9375 -14.6875 C-199.60120605 -14.36523438 -200.26491211 -14.04296875 -200.94873047 -13.7109375 C-210.63797935 -8.94501853 -219.36072909 -3.22950961 -227.9375 3.3125 C-228.83597656 3.98539063 -229.73445313 4.65828125 -230.66015625 5.3515625 C-253.87202763 23.48693109 -270.90133337 46.49041918 -283.02026367 73.14379883 C-283.3732251 73.91747803 -283.72618652 74.69115723 -284.08984375 75.48828125 C-284.5537854 76.52335815 -284.5537854 76.52335815 -285.02709961 77.5793457 C-285.9375 79.3125 -285.9375 79.3125 -287.9375 81.3125 C-290.4375 81.5625 -290.4375 81.5625 -292.9375 81.3125 C-293.5975 80.6525 -294.2575 79.9925 -294.9375 79.3125 C-294.65127881 73.72071532 -292.90020474 69.32332772 -290.5 64.375 C-290.14728027 63.63991211 -289.79456055 62.90482422 -289.43115234 62.14746094 C-281.0952913 45.18566975 -269.94304746 29.98600609 -256.9375 16.3125 C-256.4105957 15.75304687 -255.88369141 15.19359375 -255.34082031 14.6171875 C-225.95256045 -16.40467019 -187.2133271 -35.73978748 -144.9375 -41.6875 C-144.28869873 -41.7817627 -143.63989746 -41.87602539 -142.97143555 -41.97314453 C-92.22869495 -48.56740049 -38.95421234 -33.05536597 0 0 Z " fill="#000000" transform="translate(369.9375,59.6875)"></path><path d="M0 0 C1.24652344 -0.02578125 2.49304688 -0.0515625 3.77734375 -0.078125 C7.0625 0.25 7.0625 0.25 9.01953125 1.6015625 C10.0625 3.25 10.0625 3.25 9.8125 5.875 C9.0625 8.25 9.0625 8.25 8.0625 9.25 C5.40427343 9.37658222 2.78362576 9.43520214 0.125 9.4375 C-0.61685547 9.44974609 -1.35871094 9.46199219 -2.12304688 9.47460938 C-4.06263629 9.47988478 -6.0017371 9.37188902 -7.9375 9.25 C-8.5975 8.59 -9.2575 7.93 -9.9375 7.25 C-9.6875 4.1875 -9.6875 4.1875 -8.9375 1.25 C-5.98361864 -0.22694068 -3.28588118 0.04069203 0 0 Z " fill="#000000" transform="translate(241.9375,332.75)"></path><path d="M0 0 C1.24652344 -0.01675781 2.49304688 -0.03351563 3.77734375 -0.05078125 C7.0625 0.3125 7.0625 0.3125 9.01953125 1.66796875 C10.0625 3.3125 10.0625 3.3125 9.8125 5.9375 C9.0625 8.3125 9.0625 8.3125 8.0625 9.3125 C5.40247189 9.46567991 2.7862812 9.54409875 0.125 9.5625 C-0.61685547 9.583125 -1.35871094 9.60375 -2.12304688 9.625 C-4.27734375 9.640625 -4.27734375 9.640625 -7.9375 9.3125 C-9.9375 6.3125 -9.9375 6.3125 -9.6875 4.25 C-7.80568574 -0.61135352 -4.67382441 0.01447004 0 0 Z " fill="#000000" transform="translate(397.9375,250.6875)"></path><path d="M0 0 C1.36465267 0.00399021 2.7293066 0.01874032 4.09375 0.04296875 C4.78339844 0.04361328 5.47304688 0.04425781 6.18359375 0.04492188 C11.31263951 0.0899135 11.31263951 0.0899135 13.59375 1.23046875 C14.40625 3.04296875 14.40625 3.04296875 14.59375 5.23046875 C13.578125 7.34375 13.578125 7.34375 11.59375 9.23046875 C8.91271488 9.58315787 6.69537784 9.70124629 4.03125 9.60546875 C3.34611328 9.60417969 2.66097656 9.60289062 1.95507812 9.6015625 C-3.12489073 9.51182802 -3.12489073 9.51182802 -5.40625 7.23046875 C-5.65625 4.73046875 -5.65625 4.73046875 -5.40625 2.23046875 C-3.40625 0.23046875 -3.40625 0.23046875 0 0 Z " fill="#000000" transform="translate(299.40625,342.76953125)"></path><path d="M0 0 C0.68964844 -0.01224609 1.37929687 -0.02449219 2.08984375 -0.03710938 C3.89477494 -0.04238695 5.69917842 0.06565542 7.5 0.1875 C8.16 0.8475 8.82 1.5075 9.5 2.1875 C8.93181818 7.75568182 8.93181818 7.75568182 7.5 9.1875 C5.00941086 9.28747642 2.55272605 9.32629627 0.0625 9.3125 C-0.97874023 9.31830078 -0.97874023 9.31830078 -2.04101562 9.32421875 C-7.24672012 9.31413994 -7.24672012 9.31413994 -9.5 8.1875 C-10.59036928 5.2137656 -10.53864166 4.30342499 -9.5 1.1875 C-6.46576019 -0.3296199 -3.32495206 0.00310743 0 0 Z " fill="#000000" transform="translate(178.5,67.8125)"></path><path d="M0 0 C0.69802734 0.00386719 1.39605469 0.00773437 2.11523438 0.01171875 C2.80939453 0.00785156 3.50355469 0.00398438 4.21875 0 C9.42445449 0.01007881 9.42445449 0.01007881 11.67773438 1.13671875 C12.76810365 4.11045315 12.71637604 5.02079376 11.67773438 8.13671875 C8.64342857 9.65387165 5.50367473 9.36185191 2.17773438 9.38671875 C1.48808594 9.40734375 0.7984375 9.42796875 0.08789062 9.44921875 C-1.91601562 9.46484375 -1.91601562 9.46484375 -5.32226562 9.13671875 C-7.32226562 6.13671875 -7.32226562 6.13671875 -7.00976562 3.51171875 C-5.78963088 -0.70329218 -4.12389474 0.0079998 0 0 Z " fill="#000000" transform="translate(221.322265625,39.86328125)"></path><path d="M0 0 C0.69802734 0.00386719 1.39605469 0.00773437 2.11523438 0.01171875 C2.80939453 0.00785156 3.50355469 0.00398438 4.21875 0 C9.42445449 0.01007881 9.42445449 0.01007881 11.67773438 1.13671875 C12.76810365 4.11045315 12.71637604 5.02079376 11.67773438 8.13671875 C8.72385301 9.61365943 6.02611556 9.34602672 2.74023438 9.38671875 C0.87044922 9.42539062 0.87044922 9.42539062 -1.03710938 9.46484375 C-4.32226562 9.13671875 -4.32226562 9.13671875 -6.27929688 7.78515625 C-7.32226562 6.13671875 -7.32226562 6.13671875 -7.07226562 3.51171875 C-5.7509154 -0.67255695 -4.15001875 0.00805047 0 0 Z " fill="#000000" transform="translate(181.322265625,342.86328125)"></path><path d="M0 0 C1.24652344 -0.04898438 2.49304688 -0.09796875 3.77734375 -0.1484375 C7.0625 0.375 7.0625 0.375 9.12890625 2.6484375 C10.0625 5.375 10.0625 5.375 9.25 7.6875 C8.858125 8.244375 8.46625 8.80125 8.0625 9.375 C5.43722811 9.42882106 2.81305287 9.46858313 0.1875 9.5 C-0.55886719 9.51675781 -1.30523437 9.53351563 -2.07421875 9.55078125 C-4.02944461 9.5683959 -5.98492021 9.47820189 -7.9375 9.375 C-8.5975 8.715 -9.2575 8.055 -9.9375 7.375 C-9.6875 4.3125 -9.6875 4.3125 -8.9375 1.375 C-5.98719611 -0.10015195 -3.28254661 0.08807659 0 0 Z " fill="#000000" transform="translate(144.9375,116.625)"></path><path d="M0 0 C1.04027344 -0.03738281 2.08054687 -0.07476562 3.15234375 -0.11328125 C6.71052891 0.40731228 7.82532667 1.57937499 10.0625 4.3125 C9.4025 5.9625 8.7425 7.6125 8.0625 9.3125 C5.43722811 9.36632106 2.81305287 9.40608313 0.1875 9.4375 C-0.55886719 9.45425781 -1.30523437 9.47101563 -2.07421875 9.48828125 C-4.02944461 9.5058959 -5.98492021 9.41570189 -7.9375 9.3125 C-8.5975 8.6525 -9.2575 7.9925 -9.9375 7.3125 C-9.5625 4.1875 -9.5625 4.1875 -8.9375 1.3125 C-5.77550849 0.25850283 -3.32289814 0.07804087 0 0 Z " fill="#000000" transform="translate(342.9375,302.6875)"></path><path d="M0 0 C1.47668858 0.0133035 2.95331108 0.03716415 4.4296875 0.0703125 C5.18378906 0.07933594 5.93789063 0.08835937 6.71484375 0.09765625 C8.57826004 0.1212438 10.44151343 0.15711531 12.3046875 0.1953125 C12.9646875 1.8453125 13.6246875 3.4953125 14.3046875 5.1953125 C12.06751417 7.92843751 10.95271641 9.10050022 7.39453125 9.62109375 C5.83412109 9.56501953 5.83412109 9.56501953 4.2421875 9.5078125 C3.19933594 9.48332031 2.15648437 9.45882812 1.08203125 9.43359375 C-1.6953125 9.1953125 -1.6953125 9.1953125 -4.6953125 8.1953125 C-5.3203125 5.3203125 -5.3203125 5.3203125 -5.6953125 2.1953125 C-3.6953125 0.1953125 -3.6953125 0.1953125 0 0 Z " fill="#000000" transform="translate(338.6953125,104.8046875)"></path><path d="M0 0 C1.48831242 0.00667405 2.97660807 0.01863442 4.46484375 0.03515625 C5.22345703 0.03966797 5.98207031 0.04417969 6.76367188 0.04882812 C8.64326246 0.06064945 10.52281274 0.07858547 12.40234375 0.09765625 C13.06234375 1.74765625 13.72234375 3.39765625 14.40234375 5.09765625 C12.1019361 7.95197041 10.95601405 9.00987082 7.2734375 9.59375 C5.57380859 9.56474609 5.57380859 9.56474609 3.83984375 9.53515625 C2.13634766 9.53322266 2.13634766 9.53322266 0.3984375 9.53125 C-2.59765625 9.09765625 -2.59765625 9.09765625 -4.515625 7.734375 C-5.59765625 6.09765625 -5.59765625 6.09765625 -5.34765625 3.47265625 C-4.16933235 -0.25870278 -4.19216364 0.1137938 0 0 Z " fill="#000000" transform="translate(259.59765625,76.90234375)"></path><path d="M0 0 C1.8871875 -0.02126953 1.8871875 -0.02126953 3.8125 -0.04296875 C7 0.1875 7 0.1875 9 2.1875 C9.1875 5.25 9.1875 5.25 9 8.1875 C6.95733571 10.23016429 2.86308566 9.37257944 0.0625 9.375 C-0.67935547 9.38724609 -1.42121094 9.39949219 -2.18554688 9.41210938 C-4.12513629 9.41738478 -6.0642371 9.30938902 -8 9.1875 C-8.66 8.5275 -9.32 7.8675 -10 7.1875 C-9.75 4.125 -9.75 4.125 -9 1.1875 C-6.02958551 -0.29770725 -3.30235553 0.0169178 0 0 Z " fill="#000000" transform="translate(324,61.8125)"></path><path d="M0 0 C1.48831242 0.00667405 2.97660807 0.01863442 4.46484375 0.03515625 C5.22345703 0.03966797 5.98207031 0.04417969 6.76367188 0.04882812 C8.64326246 0.06064945 10.52281274 0.07858547 12.40234375 0.09765625 C13.52734375 2.41015625 13.52734375 2.41015625 14.40234375 5.09765625 C13.41234375 6.58265625 13.41234375 6.58265625 12.40234375 8.09765625 C9.64692534 8.37379193 7.15143273 8.4702325 4.40234375 8.41015625 C3.665 8.41337891 2.92765625 8.41660156 2.16796875 8.41992188 C-3.33057676 8.36473574 -3.33057676 8.36473574 -5.59765625 6.09765625 C-4.8701613 0.13219765 -4.8701613 0.13219765 0 0 Z " fill="#000000" transform="translate(140.59765625,299.90234375)"></path><path d="M0 0 C1.48831242 0.00667405 2.97660807 0.01863442 4.46484375 0.03515625 C5.22345703 0.03966797 5.98207031 0.04417969 6.76367188 0.04882812 C8.64326246 0.06064945 10.52281274 0.07858547 12.40234375 0.09765625 C13.52734375 2.41015625 13.52734375 2.41015625 14.40234375 5.09765625 C13.41234375 6.58265625 13.41234375 6.58265625 12.40234375 8.09765625 C9.64692534 8.37379193 7.15143273 8.4702325 4.40234375 8.41015625 C3.665 8.41337891 2.92765625 8.41660156 2.16796875 8.41992188 C-3.33057676 8.36473574 -3.33057676 8.36473574 -5.59765625 6.09765625 C-4.8701613 0.13219765 -4.8701613 0.13219765 0 0 Z " fill="#000000" transform="translate(398.59765625,190.90234375)"></path></svg>