<svg xmlns="http://www.w3.org/2000/svg" width="512" height="512"><path d="M0 0 C1.25490234 -0.02449219 2.50980469 -0.04898438 3.80273438 -0.07421875 C16.24400326 -0.11271675 26.95447877 2.64049122 37.66015625 9.0078125 C41.21703078 11.03420752 41.21703078 11.03420752 45.0625 12.375 C47.51869729 11.45493445 47.51869729 11.45493445 49.8125 9.75 C61.99167503 1.84706865 72.81559244 -0.02015467 87.25 0 C88.23752258 0.00081573 88.23752258 0.00081573 89.24499512 0.00164795 C101.5219936 0.04802525 113.1703756 1.30652938 125.0625 4.375 C125.81289551 4.56803711 126.56329102 4.76107422 127.33642578 4.95996094 C136.39962991 7.41143387 144.82932302 11.08081718 153.2578125 15.17578125 C154.30372055 15.68132034 155.3496286 16.18685944 156.42723083 16.7077179 C160.30918022 18.58964726 164.18637564 20.48111148 168.0625 22.375 C168.85794598 22.76333763 169.65339195 23.15167526 170.47294235 23.5517807 C181.96678013 29.16457494 193.44374944 34.81066587 204.90242672 40.49490929 C210.05616437 43.05101348 215.21358261 45.59901746 220.38012695 48.12915039 C225.45586071 50.61507128 230.52143787 53.1206398 235.5805645 55.64017677 C237.48795503 56.58595524 239.39877031 57.52486232 241.31315804 58.4563961 C262.55798757 68.80674443 262.55798757 68.80674443 267.53125 79.546875 C268.94327569 87.06383529 269.33481249 94.04392069 265.5 100.875 C261.37763873 106.82201298 256.54244341 110.75233618 249.32698059 112.11250305 C241.29430948 113.04364446 234.69027005 110.77425122 227.64453125 107.17578125 C226.69004593 106.70449295 225.73556061 106.23320465 224.75215149 105.74763489 C221.86478271 104.31516855 218.98619985 102.8663919 216.11060333 101.41046906 C213.07187491 99.8741651 210.02836944 98.3474051 206.98542595 96.81947136 C198.76940945 92.69308532 190.55884584 88.5558701 182.34960938 84.41601562 C181.3991316 83.93683119 180.44865383 83.45764675 179.4693737 82.96394157 C174.61011359 80.51320614 169.75318352 78.05800831 164.90014648 75.5949707 C160.12622618 73.17254061 155.34628919 70.76235927 150.56235695 68.35976601 C148.76916236 67.45647034 146.978113 66.54890035 145.18948936 65.63658714 C127.04310065 56.38545448 109.32789476 49.39551549 88.75 49 C87.88906738 48.97373535 87.02813477 48.9474707 86.14111328 48.92041016 C80.60252654 48.90637201 77.45588592 49.68647195 73.0625 53.375 C69.08574672 57.90027097 68.88446957 62.11792746 68.82421875 67.9296875 C68.81211113 69.03753098 68.81211113 69.03753098 68.79975891 70.16775513 C68.78594127 71.72948881 68.77520875 73.29125239 68.76733398 74.85302734 C68.75011112 77.23463371 68.7062064 79.61485465 68.66210938 81.99609375 C68.65198244 83.51561482 68.64346634 85.03514766 68.63671875 86.5546875 C68.61045662 87.61742386 68.61045662 87.61742386 68.58366394 88.70162964 C68.60504344 93.60257716 69.73700031 95.85186482 73.0625 99.375 C76.36443191 105.27130698 76.92633989 110.67085131 76.0625 117.375 C74.88357131 121.22385542 73.57900156 125.02897545 70.51344633 127.74991733 C67.94080614 130.63131473 68.64540891 134.57863177 68.66809082 138.26176453 C68.66199972 139.18156611 68.65590861 140.10136769 68.64963293 141.04904205 C68.63292712 144.14439094 68.63778962 147.23933187 68.64257812 150.3347168 C68.63524201 152.54875621 68.62665713 154.76279178 68.61691284 156.9768219 C68.59463522 163.00181632 68.59176944 169.02667422 68.59366035 175.05170417 C68.59377982 180.07893209 68.5852253 185.10613084 68.57688284 190.13335067 C68.55652255 202.67428753 68.55550683 215.21515776 68.56268996 227.75610045 C68.56826052 238.6402327 68.5474627 249.5241292 68.51432949 260.40820637 C68.48056547 271.58643189 68.46590209 282.76457136 68.47004652 293.94285518 C68.4721151 300.21752135 68.46661831 306.49195302 68.44215393 312.76657677 C68.41989682 318.67064459 68.4217566 324.57422244 68.44208145 330.47829247 C68.44549375 332.64382813 68.44039305 334.80939668 68.42609787 336.97488785 C68.40790831 339.9349351 68.42065317 342.89331988 68.44104004 345.85331726 C68.42852219 346.70732248 68.41600434 347.56132771 68.40310717 348.44121188 C68.48355078 353.90158308 69.69973085 357.22356235 72.89294195 361.66677791 C75.45189683 365.40431215 75.51668709 368.98452475 75.0625 373.375 C73 376.375 73 376.375 70.0625 378.375 C66.60686619 378.375 64.2267225 378.32544467 61.48828125 376.08984375 C59.87337882 374.14753644 58.94280143 372.22344314 57.875 369.9375 C55.6290848 365.8278104 53.58589341 363.68509389 49.2421875 361.8984375 C43.87314253 360.60909695 39.54940582 361.63154709 34.6875 364.0625 C31.25668502 367.08488463 29.44280089 369.73402163 28.78125 374.328125 C28.56495353 379.05059798 29.41456651 382.35744573 32.0625 386.375 C36.04332612 389.96745284 38.42916614 391.51629658 43.75 391.5 C44.64460937 391.49742187 45.53921875 391.49484375 46.4609375 391.4921875 C49.28356785 391.42963654 49.28356785 391.42963654 52.875 390.625 C56.0625 390.375 56.0625 390.375 58.9375 392 C61.30573604 394.64685204 61.9764874 395.84848325 62.0625 399.375 C61.24247402 402.81910912 60.48528583 404.06062079 57.625 406.1875 C55.0625 407.375 55.0625 407.375 52.0625 407.375 C54.78102791 421.93343237 58.36468878 435.97411877 63.20858765 449.96084595 C70.47059323 470.96614039 70.47059323 470.96614039 73.25 481.6875 C73.43361084 482.39567871 73.61722168 483.10385742 73.80639648 483.83349609 C75.33819181 490.02677595 76.21825732 496.18554794 76.375 502.5625 C76.41238281 503.56667969 76.44976562 504.57085937 76.48828125 505.60546875 C75.94580743 509.13403701 74.89005017 510.25557536 72.0625 512.375 C70.0625 512.94140625 70.0625 512.94140625 68.0625 512.9375 C67.4025 512.95941406 66.7425 512.98132813 66.0625 513.00390625 C62.80237099 511.97874849 61.80826027 510.26453424 60.0625 507.375 C59.58827439 504.47925984 59.28638222 501.7266955 59.0625 498.8125 C57.72495301 486.10756201 53.36134975 474.36490066 49.17773438 462.37670898 C48.90966476 461.60674088 48.64159515 460.83677277 48.36540222 460.04347229 C47.85427496 458.58272894 47.3378408 457.12382856 46.81538391 455.667099 C45.78985791 452.76175171 45.0625 450.48198177 45.0625 447.375 C44.4025 447.375 43.7425 447.375 43.0625 447.375 C42.83433594 448.56609375 42.60617188 449.7571875 42.37109375 450.984375 C41.02389666 457.05564843 38.87668378 462.82276954 36.80889893 468.67849731 C33.06381183 479.33770704 29.92537685 489.65684941 28.97290039 500.99121094 C28.52480193 505.90045763 27.9006446 508.89453196 24.0625 512.375 C22.0625 513.00390625 22.0625 513.00390625 20.0625 512.9375 C19.4025 512.93878906 18.7425 512.94007813 18.0625 512.94140625 C15.15050057 512.11671891 13.91058513 510.73779305 12.0625 508.375 C8.12739953 491.24573911 18.02359551 469.71347174 23.55761719 453.74414062 C26.19324764 446.12252415 28.68970483 438.49449493 30.86328125 430.7265625 C31.06791489 430.00000458 31.27254852 429.27344666 31.48338318 428.52487183 C32.99816384 422.9843762 33.98314075 417.48352527 34.703125 411.78125 C35.0625 409.375 35.0625 409.375 36.0625 407.375 C35.4025 407.313125 34.7425 407.25125 34.0625 407.1875 C26.38216848 405.10741021 20.45624165 399.89331039 16.0625 393.375 C11.45639207 384.54322963 10.40572715 375.07147301 13.3125 365.5 C14.26926639 362.7891619 15.28011243 361.10160274 17.09576321 358.82051086 C19.63212978 354.37707003 19.62539732 351.13466989 19.5771637 346.11401367 C19.58410922 345.19023768 19.59105475 344.2664617 19.59821075 343.3146925 C19.6164854 340.22387126 19.606215 337.13381716 19.59594727 334.04296875 C19.60300543 331.82524033 19.61175002 329.60751673 19.62205505 327.38980103 C19.64456874 321.36920546 19.64160478 315.34887253 19.63273358 309.32825089 C19.62762632 304.30316346 19.63491406 299.2781255 19.64220566 294.25304317 C19.66018286 281.72240508 19.65378748 269.19189355 19.63603585 256.66126907 C19.62133697 245.78243598 19.63597107 234.90387904 19.66480602 224.02508152 C19.69420785 212.84902131 19.70466205 201.67306085 19.69562382 190.49695683 C19.69069037 184.22464647 19.69293327 177.95255082 19.71341133 171.68026733 C19.73174158 165.78353495 19.7258417 159.88731664 19.70121193 153.99061203 C19.69619595 151.82585279 19.69971409 149.66105456 19.71236038 147.49632645 C19.72825344 144.54228598 19.71337482 141.58994609 19.69068909 138.63598633 C19.70252482 137.77820178 19.71436054 136.92041723 19.72655493 136.03663921 C19.63320731 130.05876147 18.24180102 127.63054389 14.0625 123.375 C11.45267374 118.03107005 11.26859151 112.19961573 12.0625 106.375 C13.71328711 101.87675853 15.65587313 97.78162687 19.0625 94.375 C19.27452367 91.86388584 19.36648621 89.46588515 19.36328125 86.953125 C19.36970894 85.84671661 19.36970894 85.84671661 19.37626648 84.71795654 C19.38201489 83.15442938 19.38250627 81.59087547 19.37817383 80.02734375 C19.37503034 77.64796458 19.39840696 75.26984883 19.42382812 72.890625 C19.4261029 71.36979323 19.42680379 69.84895813 19.42578125 68.328125 C19.43959587 67.26842499 19.43959587 67.26842499 19.45368958 66.18731689 C19.410482 61.51335408 18.51802672 58.34514041 16.0625 54.375 C8.8412044 47.85822104 1.03785847 48.87155044 -8.22021484 49.19580078 C-12.31255289 49.46568184 -16.24795077 50.11956689 -20.25 51 C-20.90419922 51.14010498 -21.55839844 51.28020996 -22.23242188 51.42456055 C-37.02049104 55.0333822 -50.71552488 62.5721402 -64.19947815 69.39324188 C-67.53497702 71.08037334 -70.87433271 72.75964614 -74.21472168 74.43707275 C-81.29240707 77.99292585 -88.36531283 81.55822948 -95.4375 85.125 C-103.66690055 89.27529541 -111.89835861 93.42142507 -120.13487244 97.5575943 C-123.41830375 99.20900295 -126.69802757 100.86761542 -129.97766113 102.52655029 C-131.99078855 103.53856266 -134.00408515 104.55023858 -136.01757812 105.56152344 C-136.92262085 106.02179428 -137.82766357 106.48206512 -138.76013184 106.95628357 C-148.07183137 111.61329696 -155.89620419 113.79291541 -166.2109375 110.69140625 C-171.73251332 108.31141667 -174.84068944 104.42457646 -177.9375 99.375 C-178.31390625 98.77171875 -178.6903125 98.1684375 -179.078125 97.546875 C-181.27556396 91.99334745 -180.76037418 84.64045641 -179.3203125 78.92578125 C-175.54585137 70.42489313 -167.06356053 65.47651924 -159.0546875 61.53515625 C-158.23678741 61.12333603 -157.41888733 60.71151581 -156.57620239 60.28721619 C-154.86315055 59.42866594 -153.14710789 58.57605895 -151.42822266 57.72924805 C-148.80348459 56.43304783 -146.19263637 55.11150318 -143.58203125 53.78710938 C-141.90701796 52.95158367 -140.23126141 52.11754597 -138.5546875 51.28515625 C-137.77954803 50.89151382 -137.00440857 50.4978714 -136.20578003 50.09230042 C-131.98660909 48.03703457 -128.74133342 46.68892839 -123.9375 47.375 C-120.61475596 49.83094125 -119.16131992 51.3006644 -118.3125 55.375 C-119.16125627 59.44903009 -120.79949658 60.65517401 -123.9375 63.375 C-126.60314958 64.99439038 -129.37688518 66.32867149 -132.1953125 67.66015625 C-132.98018036 68.04312363 -133.76504822 68.426091 -134.57369995 68.82066345 C-137.06533818 70.03611223 -139.56297797 71.23835612 -142.0625 72.4375 C-145.36254352 74.02097585 -148.65570737 75.61762768 -151.9453125 77.22265625 C-152.70159943 77.58005386 -153.45788635 77.93745148 -154.23709106 78.30567932 C-159.44763892 80.83988713 -159.44763892 80.83988713 -162.9375 85.375 C-163.32601935 88.54790804 -163.52756563 90.47437351 -161.75 93.1875 C-159.27004244 94.81229978 -157.94881549 95.19844971 -154.9375 95.375 C-151.76484141 94.35646002 -148.85582863 92.83218839 -145.88671875 91.33203125 C-144.91111496 90.85264603 -143.93551117 90.3732608 -142.93034363 89.87934875 C-139.25621109 88.06373056 -135.59620119 86.22144844 -131.9375 84.375 C-130.37147639 83.58633241 -128.80541404 82.79774174 -127.23931885 82.00921631 C-121.87248259 79.30549067 -116.50834388 76.59643674 -111.14453125 73.88671875 C-110.20659603 73.41299961 -109.26866081 72.93928047 -108.30230331 72.45120621 C-105.40518675 70.98790006 -102.50824336 69.52425155 -99.61132812 68.06054688 C-98.63923967 67.56957457 -97.66715122 67.07860226 -96.66560555 66.572752 C-91.69995971 64.06360075 -86.73746603 61.54851099 -81.78051758 59.0222168 C-76.9046588 56.53779377 -72.02078346 54.06979011 -67.13147545 51.61194801 C-65.30012338 50.6877629 -63.47160974 49.75792608 -61.64634132 48.82178307 C-42.1579725 38.83380736 -22.39575529 32.02686527 -0.3125 32 C0.75484375 31.97550781 1.8221875 31.95101563 2.921875 31.92578125 C12.94544388 31.88883935 19.94623423 34.62218649 27.2734375 41.453125 C33.79769845 48.46171973 36.34009433 56.03526109 36.2578125 65.62109375 C36.2549826 66.27707047 36.25215271 66.93304718 36.24923706 67.60890198 C36.23815984 69.67696409 36.21308063 71.74457173 36.1875 73.8125 C36.17745402 75.22590515 36.16833102 76.63931717 36.16015625 78.05273438 C36.13997405 81.49379991 36.10080539 84.93389924 36.0625 88.375 C41.3425 88.375 46.6225 88.375 52.0625 88.375 C52.01609375 86.33699219 51.9696875 84.29898438 51.921875 82.19921875 C51.89402128 80.1867876 51.86632506 78.17435133 51.84277344 76.16186523 C51.8228733 74.781855 51.7957426 73.40192663 51.76074219 72.0222168 C51.48991349 61.05763745 52.26422657 51.73676107 59.375 43 C65.82075552 36.27878484 71.93586946 32.41975847 81.44921875 32.0390625 C91.45097124 31.89405183 101.30334841 31.94094045 111.125 34 C111.79942139 34.14002441 112.47384277 34.28004883 113.16870117 34.42431641 C128.62175849 38.10895125 142.76485955 45.46791845 156.83116531 52.60900307 C160.23270799 54.33562569 163.63937559 56.05174577 167.04745483 57.76542664 C174.26539076 61.39706566 181.47690645 65.041314 188.6875 68.6875 C197.08403973 72.93321855 205.48329918 77.1733664 213.88932419 81.40028954 C217.24178557 83.0894603 220.58927759 84.78820456 223.93667603 86.48738098 C225.98700641 87.51980925 228.03756188 88.55179069 230.08837891 89.58325195 C231.47703156 90.29307724 231.47703156 90.29307724 232.89373779 91.01724243 C237.25802995 93.20010384 241.1041785 95.08051845 246.0625 95.375 C248.81204328 94.40894425 249.75257757 93.99484486 251.0625 91.375 C251.56345023 88.50193772 251.56345023 88.50193772 251.0625 85.375 C247.05804882 80.41672023 242.06012021 78.02190779 236.41723633 75.23681641 C235.45055527 74.74989822 234.48387421 74.26298004 233.48789978 73.76130676 C230.29500194 72.15641562 227.09506801 70.56615837 223.89453125 68.9765625 C221.65761199 67.85768815 219.4210193 66.73816068 217.18473816 65.61801147 C212.49131586 63.26987087 207.7945465 60.92856822 203.0949707 58.59277344 C197.11657071 55.62124046 191.14683924 52.63277683 185.17924976 49.63958168 C180.55523347 47.32224389 175.92729426 45.01282999 171.29816246 42.70573044 C169.09857949 41.60850492 166.90009361 40.50907687 164.70279884 39.40727615 C135.22974943 24.64436592 101.34037978 9.67237587 67.80078125 19.3125 C62.06755127 21.42667443 57.91270532 24.17415215 53.3125 28.1875 C47.55526169 33.08115256 47.55526169 33.08115256 44.0625 33.5 C39.04851537 32.89872949 35.61941692 28.8943859 31.9765625 25.703125 C19.69115501 15.88797371 3.45620882 15.56261692 -11.49902344 17.07714844 C-15.74041273 17.59521962 -19.9304349 18.31450687 -24.125 19.125 C-24.88304932 19.26953613 -25.64109863 19.41407227 -26.42211914 19.56298828 C-39.45292262 22.29456443 -51.37570631 27.21873779 -63.25 33.125 C-64.514612 33.743908 -65.77967338 34.36189856 -67.04516602 34.97900391 C-72.59338248 37.6920584 -78.11576534 40.45144369 -83.6015625 43.2890625 C-84.42229248 43.7109082 -85.24302246 44.13275391 -86.08862305 44.56738281 C-87.5598061 45.32834498 -89.02538036 46.10030328 -90.48364258 46.88574219 C-94.4625749 48.95217655 -97.4504876 49.97067841 -101.9375 49.375 C-105.26024404 46.91905875 -106.71368008 45.4493356 -107.5625 41.375 C-106.75981785 37.5221257 -104.92717216 35.74385023 -101.9375 33.375 C-98.99087114 31.5617357 -95.9270097 30.03089358 -92.82421875 28.50390625 C-91.93700638 28.05909409 -91.04979401 27.61428192 -90.13569641 27.1559906 C-88.25783871 26.21755027 -86.37749999 25.28406022 -84.49487305 24.35522461 C-81.66614285 22.95782467 -78.84735003 21.54183177 -76.02929688 20.12304688 C-51.58152426 7.90771472 -27.58800193 0.02825192 0 0 Z M28.0625 109.375 C27.91894765 113.46624202 28.26667345 115.48169269 31.0078125 118.55859375 C35.36406379 121.14894778 39.08675545 120.96153469 44.0625 120.875 C45.39667969 120.89820313 45.39667969 120.89820313 46.7578125 120.921875 C50.96718892 120.89674439 53.44108235 120.74451305 57.1171875 118.55859375 C59.85832655 115.48169269 60.20605235 113.46624202 60.0625 109.375 C57.99564764 106.32794512 56.3527898 104.63329481 52.66845703 103.89575195 C49.7836483 103.70052576 46.95311115 103.69324716 44.0625 103.75 C43.07765625 103.73066406 42.0928125 103.71132812 41.078125 103.69140625 C35.10308108 103.73177817 31.64820458 104.08877887 28.0625 109.375 Z M36.0625 136.375 C36.0625 141.655 36.0625 146.935 36.0625 152.375 C41.3425 152.375 46.6225 152.375 52.0625 152.375 C52.0625 147.095 52.0625 141.815 52.0625 136.375 C46.7825 136.375 41.5025 136.375 36.0625 136.375 Z M36.0625 168.375 C36.0625 173.655 36.0625 178.935 36.0625 184.375 C41.3425 184.375 46.6225 184.375 52.0625 184.375 C52.0625 179.095 52.0625 173.815 52.0625 168.375 C46.7825 168.375 41.5025 168.375 36.0625 168.375 Z M36.0625 200.375 C36.0625 205.655 36.0625 210.935 36.0625 216.375 C41.3425 216.375 46.6225 216.375 52.0625 216.375 C52.0625 211.095 52.0625 205.815 52.0625 200.375 C46.7825 200.375 41.5025 200.375 36.0625 200.375 Z M36.0625 232.375 C36.0625 237.655 36.0625 242.935 36.0625 248.375 C41.3425 248.375 46.6225 248.375 52.0625 248.375 C52.0625 243.095 52.0625 237.815 52.0625 232.375 C46.7825 232.375 41.5025 232.375 36.0625 232.375 Z M36.0625 264.375 C36.0625 269.655 36.0625 274.935 36.0625 280.375 C41.3425 280.375 46.6225 280.375 52.0625 280.375 C52.0625 275.095 52.0625 269.815 52.0625 264.375 C46.7825 264.375 41.5025 264.375 36.0625 264.375 Z M36.0625 296.375 C36.0625 301.655 36.0625 306.935 36.0625 312.375 C41.3425 312.375 46.6225 312.375 52.0625 312.375 C52.0625 307.095 52.0625 301.815 52.0625 296.375 C46.7825 296.375 41.5025 296.375 36.0625 296.375 Z M36.0625 328.375 C36.0625 333.985 36.0625 339.595 36.0625 345.375 C41.3425 345.375 46.6225 345.375 52.0625 345.375 C52.0625 339.765 52.0625 334.155 52.0625 328.375 C46.7825 328.375 41.5025 328.375 36.0625 328.375 Z " fill="#000000" transform="translate(211.9375,-0.375)"></path></svg>