<svg xmlns="http://www.w3.org/2000/svg" width="512" height="512"><path d="M0 0 C2.00133412 3.25216794 2.43311096 5.62482499 2.5 9.4375 C1.5625 12.1875 1.5625 12.1875 -0.5 14.4375 C-4.26444946 16.20900563 -8.03426806 17.2989693 -12.01953125 18.484375 C-39.72014729 26.80880445 -63.22639286 40.61595754 -83.5 61.4375 C-83.98339844 61.87578125 -84.46679688 62.3140625 -84.96484375 62.765625 C-105.05213777 81.4822566 -116.81637935 109.35237389 -123.5 135.4375 C-123.68079102 136.13439941 -123.86158203 136.83129883 -124.04785156 137.54931641 C-132.83430476 173.35018284 -125.25059176 213.69266577 -107.5 245.4375 C-106.96221924 246.40792236 -106.96221924 246.40792236 -106.41357422 247.39794922 C-101.53447511 256.11047219 -96.13512496 263.93740001 -89.5 271.4375 C-88.65695313 272.41332031 -87.81390625 273.38914062 -86.9453125 274.39453125 C-72.37812187 290.99429102 -54.60361906 303.41446722 -34.5 312.4375 C-33.46649414 312.90349609 -33.46649414 312.90349609 -32.41210938 313.37890625 C4.75033623 329.78116756 47.88568549 329.74192757 85.67626953 315.62451172 C100.79304777 309.68793441 114.90248571 301.69243361 127.5 291.4375 C128.06992676 290.9744043 128.63985352 290.51130859 129.22705078 290.03417969 C154.29924334 269.51872101 170.31984818 243.4655319 179.84375 212.6328125 C183.200972 201.82611614 183.200972 201.82611614 186.3125 198.5 C189.3103891 197.04388244 191.20159091 196.9662987 194.5 197.4375 C197.19990662 199.23743774 199.0418865 200.521273 200.5 203.4375 C200.91033103 209.27166118 199.7647004 214.05868237 198.0625 219.5625 C197.79663086 220.4285083 197.53076172 221.2945166 197.25683594 222.18676758 C188.49571943 249.77733919 174.35216603 272.58240136 154.5 293.4375 C153.80777344 294.19417969 153.11554688 294.95085937 152.40234375 295.73046875 C126.10685915 323.54592356 84.67398347 342.54279194 46.45695496 344.54450989 C44.32893728 344.60063986 42.20293503 344.62778512 40.07421875 344.640625 C39.29326843 344.64768463 38.51231812 344.65474426 37.70770264 344.66201782 C5.24074386 344.88896647 5.24074386 344.88896647 -8.5 341.4375 C-9.32097168 341.23882324 -10.14194336 341.04014648 -10.98779297 340.83544922 C-35.52508254 334.76141221 -58.77853665 324.38492791 -78.5 308.4375 C-79.38558594 307.75429688 -80.27117187 307.07109375 -81.18359375 306.3671875 C-111.49597261 282.52203606 -131.5157786 249.43510548 -141.5 212.4375 C-141.7259082 211.63199707 -141.95181641 210.82649414 -142.18457031 209.99658203 C-148.97614053 184.70293843 -148.75877561 151.5841456 -141.5 126.4375 C-141.22623535 125.47827637 -140.9524707 124.51905273 -140.67041016 123.53076172 C-131.64219246 92.80546148 -116.46713188 67.53378352 -94.5 44.4375 C-93.91992188 43.80457031 -93.33984375 43.17164063 -92.7421875 42.51953125 C-78.04700703 26.97513181 -22.36015668 -13.97509793 0 0 Z " fill="#000000" transform="translate(145.5,167.5625)"></path><path d="M0 0 C2.69773891 2.42796502 2.97481239 3.80209734 3.4375 7.4375 C2.89738591 11.83557186 2.28243459 13.01901349 -1 16 C-4.69690014 17.24491789 -8.47231709 17.85198567 -12.3125 18.5 C-14.50116439 18.91711302 -16.68868328 19.34028272 -18.875 19.76953125 C-19.93332031 19.97658691 -20.99164063 20.18364258 -22.08203125 20.39697266 C-40.70152632 24.24487701 -57.59948832 33.79788576 -72 46 C-72.81726563 46.66644531 -73.63453125 47.33289063 -74.4765625 48.01953125 C-96.76132891 66.81990979 -110.47647436 96.38489788 -114 125 C-116.18539277 157.21886451 -109.43712101 188.37249905 -89 214 C-88.59797363 214.5141748 -88.19594727 215.02834961 -87.78173828 215.55810547 C-70.13132293 238.01062083 -45.65557682 252.34072513 -18 259 C-16.99582031 259.24621094 -15.99164063 259.49242187 -14.95703125 259.74609375 C1.94910762 263.05431256 21.33066077 262.41531845 38 258 C39.06492676 257.71793701 39.06492676 257.71793701 40.15136719 257.43017578 C71.67830028 248.69739594 98.04187483 228.21882024 114.3671875 199.9375 C122.09761664 186.16442584 126.26306611 172.24020292 129.12597656 156.76708984 C130.52180096 149.67586795 130.52180096 149.67586795 132.87109375 146.35546875 C135.29346868 144.8131493 136.64327054 144.46086672 139.5 144.5 C140.2528125 144.4896875 141.005625 144.479375 141.78125 144.46875 C144.88333426 145.21150257 146.07835141 146.48641502 148 149 C152.59317641 169.60174712 138.42059206 198.01047775 128 215 C122.8017739 222.96971788 116.52839757 230.10410985 110 237 C109.18015625 237.88429688 108.3603125 238.76859375 107.515625 239.6796875 C85.50718766 262.66483064 52.69572525 278.62170303 20.64526367 280.16113281 C16.82589285 280.20725595 13.00713712 280.24666836 9.1875 280.25 C8.1478006 280.25101212 8.1478006 280.25101212 7.08709717 280.25204468 C-3.86839684 280.23511412 -14.33089197 279.61375968 -25 277 C-25.99700928 276.77449463 -25.99700928 276.77449463 -27.01416016 276.54443359 C-45.83345734 272.19943642 -64.05674172 263.20306296 -79 251 C-79.59103516 250.5241748 -80.18207031 250.04834961 -80.79101562 249.55810547 C-110.23019943 225.69122757 -128.20269254 192.55892987 -133 155 C-133.23837252 149.87788008 -133.24569047 144.75210086 -133.25 139.625 C-133.25067474 138.90657928 -133.25134949 138.18815857 -133.25204468 137.44796753 C-133.23592574 126.65475943 -132.715753 116.49721672 -130 106 C-129.84966309 105.35240723 -129.69932617 104.70481445 -129.54443359 104.03759766 C-125.15252875 85.18843597 -116.2336545 66.98071915 -104 52 C-103.5241748 51.40896484 -103.04834961 50.81792969 -102.55810547 50.20898438 C-80.06800295 22.4680178 -49.19194236 4.8154364 -14 -1 C-13.17628906 -1.1546875 -12.35257812 -1.309375 -11.50390625 -1.46875 C-7.13554803 -2.19543341 -3.99658622 -1.95182118 0 0 Z " fill="#000000" transform="translate(167,198)"></path><path d="M0 0 C2.12890625 0.36328125 2.12890625 0.36328125 4.69140625 1.67578125 C7.49379192 6.91502402 6.81077289 12.57069258 5.43359375 18.2109375 C3.28794241 24.62084549 0.16472475 29.97159721 -3.87109375 35.36328125 C-4.98484375 36.91015625 -4.98484375 36.91015625 -6.12109375 38.48828125 C-15.78907509 48.59571628 -27.89654529 52.79016586 -41.19824219 55.76538086 C-46.21511934 56.97569942 -49.68400211 58.74537761 -53.48828125 62.19140625 C-54.87109375 63.36328125 -54.87109375 63.36328125 -56.87109375 63.36328125 C-57.15210938 63.94722656 -57.433125 64.53117187 -57.72265625 65.1328125 C-58.87109375 67.36328125 -58.87109375 67.36328125 -60.01953125 69.125 C-63.21301914 74.13897939 -64.60210009 78.93370654 -65.80859375 84.67578125 C-68.90550058 99.02890374 -75.50843332 110.52450526 -87.80859375 118.98828125 C-91.52855231 121.36328125 -91.52855231 121.36328125 -93.87109375 121.36328125 C-93.43796875 122.11158203 -93.43796875 122.11158203 -92.99609375 122.875 C-89.17504313 130.26501805 -88.36225817 137.76655392 -90.54296875 145.85546875 C-94.77833016 155.53164059 -103.1008182 164.09043781 -110.1328125 171.86328125 C-114.39100517 176.74034357 -115.93828923 181.50692328 -117.39599609 187.70410156 C-121.62380891 205.29569053 -136.50092452 219.28502272 -151.37109375 228.67578125 C-161.49358448 234.60143248 -171.49091382 238.49716186 -182.87109375 241.36328125 C-184.01578125 241.65525391 -184.01578125 241.65525391 -185.18359375 241.953125 C-198.52310824 243.98895207 -211.78568089 243.32410034 -223.18359375 235.67578125 C-230.44942547 229.74995948 -235.02157295 221.22479539 -236.17260742 211.92797852 C-236.30873389 209.37730576 -236.33908173 206.85486382 -236.30859375 204.30078125 C-236.29957031 203.38466064 -236.29054688 202.46854004 -236.28125 201.5246582 C-235.90578058 186.56194124 -231.13619183 174.27506768 -223.87109375 161.36328125 C-223.32582031 160.37585938 -222.78054688 159.3884375 -222.21875 158.37109375 C-217.5065383 150.42139675 -211.33074808 143.90254399 -204.87109375 137.36328125 C-204.18015625 136.64785156 -203.48921875 135.93242187 -202.77734375 135.1953125 C-196.00156381 128.69228642 -187.33487142 124.83141066 -178.12109375 123.36328125 C-169.47269066 121.47323289 -163.30969642 114.72312435 -156.83642578 109.0546875 C-147.67554627 101.17064113 -139.61943333 95.64431965 -127.1640625 95.9453125 C-120.61108442 96.77706654 -115.65359203 99.49976032 -111.12109375 104.23828125 C-110.37859375 104.93953125 -109.63609375 105.64078125 -108.87109375 106.36328125 C-101.4885565 105.89422502 -96.04660418 101.65365056 -91.03515625 96.4609375 C-86.6754984 90.69600922 -85.35823373 84.14233384 -83.79296875 77.23828125 C-80.09994436 61.71506008 -71.25934709 49.89941593 -57.87109375 41.36328125 C-52.11566769 38.3107318 -46.03963916 36.89730926 -39.74609375 35.42578125 C-29.38046471 32.98928202 -22.34753856 28.62792339 -16.24609375 19.73828125 C-13.75756528 15.66050563 -12.70572843 11.53048315 -11.7421875 6.87890625 C-9.61639604 0.73984929 -5.98190671 -0.34492049 0 0 Z M-138.43359375 117.98828125 C-139.36945313 118.725625 -140.3053125 119.46296875 -141.26953125 120.22265625 C-142.55730469 121.28226562 -142.55730469 121.28226562 -143.87109375 122.36328125 C-144.54398437 122.8840625 -145.216875 123.40484375 -145.91015625 123.94140625 C-147.28143042 125.02022859 -148.58636564 126.18272029 -149.87109375 127.36328125 C-149.87109375 128.02328125 -149.87109375 128.68328125 -149.87109375 129.36328125 C-148.27038276 130.61093823 -146.61262267 131.78569989 -144.93359375 132.92578125 C-135.74615234 139.47139098 -129.00135846 146.92149091 -122.87109375 156.36328125 C-118.62678076 154.81000121 -116.3461492 151.64374995 -113.68359375 148.17578125 C-113.23306641 147.62341797 -112.78253906 147.07105469 -112.31835938 146.50195312 C-109.28231576 142.58286234 -107.91332943 139.47379822 -107.87109375 134.36328125 C-108.82981431 132.22995383 -108.82981431 132.22995383 -110.62109375 130.61328125 C-111.265625 129.95714844 -111.91015625 129.30101562 -112.57421875 128.625 C-113.3321875 127.87863281 -114.09015625 127.13226563 -114.87109375 126.36328125 C-115.7528125 125.40035156 -116.63453125 124.43742187 -117.54296875 123.4453125 C-118.48440162 122.43760899 -119.42710625 121.43109206 -120.37109375 120.42578125 C-121.24765625 119.48863281 -122.12421875 118.55148438 -123.02734375 117.5859375 C-128.72656048 113.13146728 -132.96261123 113.6083098 -138.43359375 117.98828125 Z M-201.12109375 159.95703125 C-210.71979751 172.40535019 -219.7423635 189.56288631 -218.93359375 205.73828125 C-217.90234205 211.72358523 -215.72414378 217.56786859 -211.32421875 221.87890625 C-204.00242192 226.47932727 -193.40321505 225.14552441 -185.25 223.73828125 C-165.96481549 218.83489722 -149.13282111 206.72191108 -137.87109375 190.36328125 C-134.7865364 185.11618098 -132.98975087 180.53268138 -133.87109375 174.36328125 C-137.97211464 161.66854806 -148.56804241 149.78114403 -160.0703125 143.2578125 C-176.73630699 134.979043 -190.61685462 147.8479778 -201.12109375 159.95703125 Z " fill="#000000" transform="translate(505.87109375,-0.36328125)"></path><path d="M0 0 C2.1640625 0.328125 2.1640625 0.328125 4.7265625 1.640625 C7.48133675 6.79085513 6.89947525 12.40388024 5.50390625 17.953125 C1.542149 28.92942215 -5.93475637 36.39583093 -15.8359375 42.328125 C-18.78056287 43.67154836 -21.69661039 44.55909521 -24.8359375 45.328125 C-33.54412215 47.34405592 -33.54412215 47.34405592 -40.8359375 52.328125 C-41.4959375 52.328125 -42.1559375 52.328125 -42.8359375 52.328125 C-45.92273492 58.02682794 -47.75358467 63.83851435 -49.0859375 70.140625 C-51.67253094 80.713659 -57.99317061 89.04273672 -66.8359375 95.328125 C-67.4959375 95.328125 -68.1559375 95.328125 -68.8359375 95.328125 C-68.3409375 96.7821875 -68.3409375 96.7821875 -67.8359375 98.265625 C-65.74950498 105.71073674 -66.30854026 112.37798005 -69.8359375 119.328125 C-71.98474092 122.34867508 -74.38341992 125.11395294 -76.8359375 127.890625 C-83.02883608 134.94012328 -85.97957046 140.84341618 -89.0859375 149.703125 C-95.23232125 165.61462138 -108.92763921 175.99617502 -123.8359375 183.328125 C-136.56536849 188.87225421 -151.8902262 192.77350142 -165.5234375 187.703125 C-174.00323274 183.50693766 -178.33689291 178.09019534 -181.8359375 169.328125 C-186.24018928 156.17183442 -181.89355349 141.25710964 -176.4140625 129.19921875 C-173.22261799 123.03080853 -169.2631734 117.65701763 -164.8359375 112.328125 C-164.36542969 111.71195312 -163.89492188 111.09578125 -163.41015625 110.4609375 C-157.08719876 102.44592096 -147.72557999 96.44154344 -137.85180664 93.79663086 C-131.40807323 91.96439161 -127.32176285 88.84506223 -122.3984375 84.390625 C-115.84614707 78.46587788 -108.87939199 73.31167661 -99.7109375 72.890625 C-93.98767263 73.53680007 -89.59496895 74.85544751 -85.1484375 78.578125 C-82.9950637 80.56096495 -82.9950637 80.56096495 -80.3984375 80.390625 C-74.67853122 78.01895654 -71.34617366 74.48496703 -68.7578125 68.89453125 C-67.58062089 65.61734951 -66.78385758 62.26914824 -65.9609375 58.890625 C-63.76271812 49.95670883 -59.75720836 43.42543504 -52.8359375 37.328125 C-52.29710937 36.83570313 -51.75828125 36.34328125 -51.203125 35.8359375 C-45.403139 30.958125 -39.05548275 29.27457102 -31.8359375 27.328125 C-25.24464838 25.4841334 -19.56376852 23.65182995 -15.6875 17.5078125 C-13.91513198 14.1096633 -12.5593263 10.62141628 -11.2734375 7.015625 C-8.8093947 0.69481956 -6.55760834 -0.29904403 0 0 Z M-106.5859375 95.265625 C-107.57078125 96.01714844 -108.555625 96.76867187 -109.5703125 97.54296875 C-110.31796875 98.13207031 -111.065625 98.72117187 -111.8359375 99.328125 C-111.0728125 100.09125 -110.3096875 100.854375 -109.5234375 101.640625 C-108.04412413 103.11993837 -106.57400938 104.60945521 -105.1484375 106.140625 C-103.88375479 107.55176277 -103.88375479 107.55176277 -101.8359375 107.328125 C-101.57039063 107.91078125 -101.30484375 108.4934375 -101.03125 109.09375 C-99.80290754 111.38986728 -98.43278811 113.13168518 -96.7109375 115.078125 C-96.17210937 115.69171875 -95.63328125 116.3053125 -95.078125 116.9375 C-94.46324219 117.62585938 -94.46324219 117.62585938 -93.8359375 118.328125 C-88.94937599 113.6526476 -88.94937599 113.6526476 -84.8359375 108.328125 C-84.97841101 103.40021772 -87.77794339 100.81345053 -91.1484375 97.578125 C-91.63505859 97.08441406 -92.12167969 96.59070313 -92.62304688 96.08203125 C-94.55619308 94.1827086 -96.43945354 92.541497 -98.83203125 91.25390625 C-102.14213231 91.37650259 -104.02099677 93.28084944 -106.5859375 95.265625 Z M-146.8359375 119.328125 C-156.28639209 129.17930558 -165.08694937 142.80984262 -165.1484375 156.890625 C-165.04299163 161.41239218 -164.62308374 164.61193001 -161.8359375 168.328125 C-156.67767997 172.19681815 -151.00790503 172.0452335 -144.8359375 171.328125 C-130.20578926 167.94752939 -117.19189264 159.99544595 -108.2734375 147.828125 C-105.62340748 143.47450425 -104.15670745 139.45906553 -104.8359375 134.328125 C-106.03341715 131.25143223 -107.77103145 128.88723842 -109.8359375 126.328125 C-110.44179688 125.56113281 -111.04765625 124.79414063 -111.671875 124.00390625 C-116.73551103 117.94955882 -121.67007358 113.61575567 -129.2734375 111.265625 C-136.29317319 111.38877826 -141.63034559 114.83016824 -146.8359375 119.328125 Z " fill="#000000" transform="translate(505.8359375,161.671875)"></path><path d="M0 0 C3.22076963 2.4775151 4.78475716 4.52917395 5.375 8.5625 C4.39577805 17.53870117 -2.20832883 24.53579183 -9 30 C-15.76218213 34.28707403 -22.49072032 36.47999717 -30.23828125 38.2421875 C-36.83117979 40.0512714 -41.53519767 43.48989824 -44.92578125 49.4375 C-46.54068125 53.28977055 -47.43512207 57.29331496 -48.41333008 61.34667969 C-51.43057647 73.28415576 -58.87138893 80.34459417 -68 88 C-67.67 89.010625 -67.34 90.02125 -67 91.0625 C-65.07449476 97.96107274 -65.96270464 103.56284756 -69 110 C-70.62267372 112.5241959 -72.45795204 114.81936124 -74.375 117.125 C-74.84421875 117.70636719 -75.3134375 118.28773437 -75.796875 118.88671875 C-77.62468545 121.14371121 -79.44887209 123.39082315 -81.39770508 125.54492188 C-84.45974108 128.97772282 -85.83781736 131.80750098 -86.9375 136.25 C-89.40389228 144.96193404 -93.25022853 151.89306391 -100 158 C-100.53882813 158.59167969 -101.07765625 159.18335938 -101.6328125 159.79296875 C-113.42595465 172.54831288 -130.3575292 179.88324907 -147.53125 181.2890625 C-157.37715949 181.66929071 -165.67820054 180.45205553 -173.4140625 173.98046875 C-181.2644868 165.83030098 -182.50775709 157.86630122 -182.41796875 146.93457031 C-181.75564498 126.82476499 -170.88453429 109.16537397 -156.5625 95.625 C-150.81774221 90.74794 -144.74880021 87.54392802 -137.375 86 C-131.14047487 84.32299166 -126.67860685 80.04007659 -121.88427734 75.91015625 C-114.16734268 69.26314383 -107.81189351 64.6437477 -97.37890625 64.78125 C-92.4064898 65.2384837 -88.31066356 66.65188891 -84.8125 70.25 C-84.214375 70.8275 -83.61625 71.405 -83 72 C-79.05999038 71.67329937 -76.81874766 70.44933619 -73.875 67.875 C-73.21242188 67.31554687 -72.54984375 66.75609375 -71.8671875 66.1796875 C-67.80438151 61.43691398 -66.58531426 55.65232359 -65.25 49.6875 C-62.65560308 39.24801817 -56.8789433 31.11208949 -48 25 C-42.44781901 21.85547774 -36.89176095 19.87516642 -30.6875 18.4375 C-21.49766921 16.30033005 -16.93525106 11.44480875 -11.8125 3.6875 C-8.81433172 -0.75805987 -5.07581577 -0.75383403 0 0 Z M-106.1875 87 C-107.08855469 87.7425 -107.98960937 88.485 -108.91796875 89.25 C-109.60503906 89.8275 -110.29210937 90.405 -111 91 C-110.27941406 91.72058594 -109.55882812 92.44117187 -108.81640625 93.18359375 C-103.2109375 98.7890625 -97.60546875 104.39453125 -92 110 C-89.36 106.37 -86.72 102.74 -84 99 C-86.16157909 94.67684183 -88.56286285 92.10457391 -91.9375 88.75 C-92.47568359 88.19570312 -93.01386719 87.64140625 -93.56835938 87.0703125 C-94.98575654 85.65116761 -96.48860308 84.31858496 -98 83 C-101.99282941 83 -103.15331592 84.47808076 -106.1875 87 Z M-152.25732422 117.58935547 C-160.40399103 128.69027276 -166.10438653 140.87596431 -164 155 C-161.92588824 159.09044882 -160.3268421 161.28729167 -156 163 C-143.79204551 164.69096667 -131.76163758 160.1353299 -122 153 C-115.03132002 147.41884323 -106.11107361 140.14798564 -104 131 C-104.30667849 122.56634148 -109.18604457 117.46563077 -114.875 111.8125 C-115.37902344 111.29236328 -115.88304687 110.77222656 -116.40234375 110.23632812 C-120.34158003 106.29205446 -124.21406196 103.42394709 -129.875 102.5625 C-139.08529278 103.85194099 -146.63368911 110.4806439 -152.25732422 117.58935547 Z " fill="#000000" transform="translate(344,8)"></path><path d="M0 0 C11.05351376 9.22987008 18.92291239 22.74986852 20.5703125 37.1875 C21.70617702 54.04291808 17.34915052 69.59990276 6.3203125 82.625 C-5.0980736 94.4511856 -19.61390323 100.12001221 -35.8046875 100.5 C-51.88152737 100.22532032 -65.37036314 94.39195659 -76.73046875 83.109375 C-88.51395645 70.35387746 -92.19105476 55.16835546 -91.55712891 38.18847656 C-90.64726921 23.90263352 -82.87389188 10.67766648 -72.4296875 1.1875 C-50.86251427 -15.6125389 -22.05178705 -16.4502077 0 0 Z M-65.89453125 20.90625 C-71.75321128 29.61227834 -74.42061299 38.75447023 -73.4296875 49.1875 C-71.04890963 61.01967919 -65.75416348 69.5429733 -56.01171875 76.6796875 C-46.52117858 82.22181837 -36.00568602 83.80929899 -25.4296875 81.0625 C-15.25892766 77.62966897 -7.12905195 71.94244339 -1.92578125 62.44140625 C0.29193546 57.78483298 2.22384785 53.38446979 2.5703125 48.1875 C2.6528125 46.970625 2.7353125 45.75375 2.8203125 44.5 C2.62613636 34.30575279 -1.41240536 24.6099043 -8.31640625 17.1484375 C-16.71329599 9.39492438 -26.66014641 5.60326441 -38.1171875 5.94140625 C-48.98292542 7.09772633 -59.00139402 12.43241699 -65.89453125 20.90625 Z " fill="#000000" transform="translate(210.4296875,292.8125)"></path><path d="M0 0 C2.88529929 1.61858253 3.64912176 2.76941987 4.546875 5.91796875 C5.0198145 9.84753958 4.54844576 12.19745781 2.296875 15.4921875 C-0.03775687 18.11252607 -2.47886007 20.55907816 -5 23 C-5.78890625 23.83402344 -6.5778125 24.66804688 -7.390625 25.52734375 C-14.95469603 33.4644727 -14.95469603 33.4644727 -20 35 C-23.444638 34.88323261 -25.90224582 34.65865251 -28.875 32.875 C-30.69146389 29.84756018 -30.9412961 27.52223395 -31 24 C-28.17127525 17.97264035 -24.18431119 13.78783293 -19.4375 9.1875 C-18.76525391 8.52041016 -18.09300781 7.85332031 -17.40039062 7.16601562 C-11.74453383 1.60002349 -8.1700085 -1.1355427 0 0 Z " fill="#000000" transform="translate(252,384)"></path><path d="M0 0 C3.04137178 2.65145232 3.86892331 4.36844865 4.6875 8.3125 C3.67730043 13.73084313 0.84018419 16.19088526 -3 20 C-4.09733922 21.12012959 -5.19361287 22.24130364 -6.2890625 23.36328125 C-16.61581995 33.86385114 -16.61581995 33.86385114 -21.8125 34.375 C-25.24119313 34.31879192 -26.00329345 33.99773575 -29 31.9375 C-31 29 -31 29 -31.75 25.6875 C-30.65021022 20.28020024 -27.84830501 17.82402549 -24 14 C-22.83998871 12.80581042 -21.68123871 11.61039494 -20.5234375 10.4140625 C-19.26708598 9.12877861 -18.00925943 7.84493499 -16.75 6.5625 C-16.13560059 5.934646 -15.52120117 5.30679199 -14.88818359 4.65991211 C-14.30117676 4.07218018 -13.71416992 3.48444824 -13.109375 2.87890625 C-12.58311523 2.3485376 -12.05685547 1.81816895 -11.51464844 1.27172852 C-7.85963675 -1.79709094 -4.35330854 -1.06923368 0 0 Z " fill="#000000" transform="translate(278,316)"></path><path d="M0 0 C2.5625 1.4375 2.5625 1.4375 4 4 C4.86815101 7.20485653 4.83996891 9.78388652 4 13 C1.4873022 16.59344209 -1.45914368 19.58926213 -4.64257812 22.59619141 C-6.12554821 24.00051914 -7.56737916 25.43892123 -9.0078125 26.88671875 C-17.01580222 34.68338652 -17.01580222 34.68338652 -23 35 C-26.17764131 33.83893875 -28.27876647 32.87802343 -30.4375 30.25 C-31.32599405 26.6960238 -31.00570199 24.54953643 -30 21 C-27.99709307 18.00856159 -25.53167817 15.54878411 -23 13 C-21.97900783 11.95327991 -20.95818623 10.90639343 -19.9375 9.859375 C-9.15711588 -1.10601044 -9.15711588 -1.10601044 0 0 Z " fill="#000000" transform="translate(107,350)"></path><path d="M0 0 C2.95235285 0.7718923 4.22121688 1.95251323 5.86572266 4.48779297 C7.18359759 7.73855114 6.94254251 9.24159924 5.89306641 12.60498047 C3.58009159 17.77416461 -0.50766262 21.40345025 -4.50927734 25.30029297 C-5.26466797 26.06277344 -6.02005859 26.82525391 -6.79833984 27.61083984 C-13.20304727 33.9427665 -13.20304727 33.9427665 -18.13427734 35.48779297 C-21.6846464 35.34287995 -23.56880637 34.90043395 -26.44677734 32.80029297 C-28.56065224 29.90350145 -29.06116466 28.07031428 -29.13427734 24.48779297 C-26.13697971 18.67350851 -21.52767517 14.32189687 -17.00927734 9.67529297 C-16.19201172 8.79164063 -15.37474609 7.90798828 -14.53271484 6.99755859 C-9.88454088 2.23538669 -6.85392135 -0.60516538 0 0 Z " fill="#000000" transform="translate(156.13427734375,238.51220703125)"></path><path d="M0 0 C2.99143841 2.00290693 5.45121589 4.46832183 8 7 C9.04672009 8.02099217 10.09360657 9.04181377 11.140625 10.0625 C20.86448944 19.6223093 20.86448944 19.6223093 21.375 24.8125 C21.31879192 28.24119313 20.99773575 29.00329345 18.9375 32 C16 34 16 34 12.6875 34.75 C7.27390453 33.64892973 4.8358194 30.841908 1 27 C-0.19354909 25.87442923 -1.38902269 24.7508973 -2.5859375 23.62890625 C-3.87126384 22.39997538 -5.15510718 21.16949169 -6.4375 19.9375 C-7.065354 19.3482373 -7.69320801 18.75897461 -8.34008789 18.15185547 C-11.16814831 15.37380462 -12.8107037 13.62122238 -13.984375 9.76953125 C-14.00513398 6.0900024 -13.01291803 4.05408253 -11 1 C-7.48734938 -1.88539158 -4.19300287 -1.18801748 0 0 Z " fill="#000000" transform="translate(90,282)"></path><path d="M0 0 C5.16023562 1.4364744 8.617755 5.42381293 12.24536133 9.19995117 C13.65503687 10.65790829 15.10646471 12.06144751 16.56884766 13.46630859 C24.20492087 21.20007144 24.20492087 21.20007144 24.31689453 26.75732422 C24.02904803 29.6289123 23.58437531 30.73734178 21.96923828 33.22216797 C19.00434579 35.09473164 17.11031034 35.65184653 13.59423828 35.72216797 C7.45619907 33.44982602 3.37133826 29.0147983 -1.15576172 24.47216797 C-2.30625 23.36421875 -2.30625 23.36421875 -3.47998047 22.23388672 C-7.79598034 17.93305732 -10.54208018 14.83672757 -11.40576172 8.72216797 C-9.81013189 2.33964864 -6.44365525 -0.23110982 0 0 Z " fill="#000000" transform="translate(232.40576171875,255.27783203125)"></path><path d="M0 0 C3.59204584 2.53327571 6.58851185 5.50006624 9.59619141 8.69750977 C11.00195183 10.18957166 12.43979808 11.64363065 13.88671875 13.09570312 C21.62235861 21.06859871 21.62235861 21.06859871 22 26 C21.02989757 29.39535851 19.9048324 31.92511972 17 34 C13.12443834 35.3212142 11.51487684 35.24398781 7.78515625 33.4765625 C3.29556056 30.7815017 -0.18847368 27.17691821 -3.8125 23.4375 C-4.47958984 22.76525391 -5.14667969 22.09300781 -5.83398438 21.40039062 C-13.28620829 13.82784826 -13.28620829 13.82784826 -13.375 8.5625 C-13.28039296 5.50519887 -13.08659066 4.15435726 -11.5625 1.4375 C-7.60564038 -0.78220174 -4.41630361 -1.16087823 0 0 Z " fill="#000000" transform="translate(141,401)"></path></svg>