<svg xmlns="http://www.w3.org/2000/svg" xmlns:xlink="http://www.w3.org/1999/xlink" id="Layer_1" x="0px" y="0px" viewBox="0 0 50 50" style="enable-background:new 0 0 50 50;" xml:space="preserve"><style type="text/css">	.st0{clip-path:url(#SVGID_2_);}</style><g>	<defs>		<rect id="SVGID_1_" width="49.9" height="50"></rect>	</defs>	<clipPath id="SVGID_2_">		<use xlink:href="#SVGID_1_" style="overflow:visible;"></use>	</clipPath>	<g class="st0">		<path d="M17,50c-0.4-0.1-0.8-0.2-1.1-0.3c-2.8-0.8-4.8-3.3-4.8-6.2c0-2.6,0-5.1,0-7.7c0-0.6,0.3-0.9,0.7-0.9   c0.4,0,0.7,0.3,0.7,0.9c0,2.5,0,5,0,7.5c0,3,2.4,5.3,5.4,5.2c1.3-0.1,2.4-0.5,3.3-1.4c-1.3-1.2-2.3-2.5-3-4.1   C16,38,17.8,31.9,22.5,28.9c0.3-0.2,0.4-0.4,0.4-0.7c0-3.3,0-6.7,0-10c0-0.2,0-0.4,0.1-0.6c0.1-0.4,0.4-0.5,0.7-0.5   c0.4,0,0.6,0.2,0.7,0.6c0,0.2,0,0.4,0,0.5c0,3,0,6.1,0,9.1c0,0.2,0,0.4,0,0.5c0.9-0.2,1.7-0.5,2.5-0.6c2.8-0.5,5.5,0,7.9,1.5   c0.5,0.3,0.7,0.7,0.5,1.1c-0.2,0.4-0.6,0.5-1.2,0.2c-3.6-2-7.2-2-10.7,0.2c-3.5,2.2-5.2,6.5-4.3,10.6c0.9,4,4.2,7.2,8.3,7.8   c6.3,1,12-4.2,11.6-10.6c-0.1-2-0.8-3.9-2.1-5.5c-0.1-0.1-0.1-0.1-0.2-0.2c-0.3-0.4-0.3-0.9,0-1.2c0.4-0.3,0.7-0.2,1.1,0.2   c0.8,1,1.4,2.1,1.9,3.3c2.6,7-2.1,14.5-9.5,15.4c-0.1,0-0.2,0.1-0.3,0.1c-0.7,0-1.4,0-2,0c0,0-0.1-0.1-0.1-0.1   c-1.9-0.2-3.7-0.8-5.2-1.9c-0.4,0.3-0.8,0.7-1.3,0.9c-0.5,0.3-0.9,0.5-1.5,0.7c-0.4,0.2-0.8,0.2-1.3,0.3C18,50,17.5,50,17,50z"></path>		<path d="M12.6,18.8c0,0.2,0,0.4,0,0.6c0,4.1,0,8.3,0,12.4c0,0.2,0,0.3,0,0.5c-0.1,0.4-0.3,0.6-0.7,0.6c-0.4,0-0.6-0.2-0.8-0.6   c-0.1-0.2,0-0.4,0-0.6c0-7.9,0-15.8,0-23.7c0-0.2,0-0.4,0-0.5C9.9,7.2,9.6,6.4,9.6,5.3c0-1.1,0-2.2,0-3.3c0-1.1,0.7-1.8,1.8-1.8   c4.2,0,8.3,0,12.5,0c1.1,0,1.8,0.7,1.8,1.8c0,1.2,0,2.5,0,3.7c0,0.8-0.4,1.4-1.2,1.7c-0.3,0.1-0.3,0.3-0.3,0.5c0,2,0,4,0,5.9   c0,0.1,0,0.3,0,0.4c0,0.4-0.3,0.6-0.7,0.7c-0.4,0-0.7-0.2-0.8-0.7c0-0.5,0-1.1,0-1.6c0-0.7,0-1.4,0-2.1c0,0,0-0.1-0.1-0.1   c-3.4,0-6.8,0-10.2,0c0,0.8,0,1.5,0,2.4c1-0.7,2.1-0.9,3.3-0.5c0.8,0.3,1.4,0.7,1.9,1.4c1,1.4,0.8,3.2-0.3,4.5   C16.4,19.7,14.6,19.9,12.6,18.8z M22.9,7.6c-3.5,0-6.9,0-10.3,0c0,0.5,0,1,0,1.4c3.4,0,6.8,0,10.3,0C22.9,8.5,22.9,8.1,22.9,7.6z    M17,15.9c0-1.2-1-2.2-2.2-2.2c-1.2,0-2.2,1-2.2,2.2c0,1.2,1,2.2,2.2,2.3C16,18.1,17,17.1,17,15.9z M21.9,6.1c0.7,0,1.4,0,2.1,0   c0.1,0,0.3-0.2,0.3-0.4c0-1.2,0-2.5,0-3.7c0-0.1-0.2-0.3-0.3-0.4c-0.7,0-1.4,0-2.1,0C21.9,3.1,21.9,4.6,21.9,6.1z M13.5,1.7   c-0.7,0-1.4,0-2.1,0c-0.1,0-0.4,0.2-0.4,0.3c0,1.2,0,2.5,0,3.7c0,0.1,0.2,0.3,0.3,0.3c0.7,0,1.4,0,2.1,0   C13.5,4.6,13.5,3.2,13.5,1.7z M17,6.1c0-1.5,0-3,0-4.4c-0.7,0-1.3,0-1.9,0c0,1.4,0,2.8,0,4.1c0,0.1,0.2,0.3,0.3,0.3   C15.8,6.1,16.4,6.1,17,6.1z M18.5,1.7c0,1.5,0,2.9,0,4.4c0.6,0,1.3,0,1.9,0c0-1.5,0-2.9,0-4.4C19.7,1.7,19.1,1.7,18.5,1.7z"></path>		<path d="M28.1,31c0.1-0.8,0.3-1.1,0.8-1.1c0.5,0,0.7,0.3,0.7,1.1c0.1-0.1,0.2-0.1,0.3-0.1c0.4-0.2,0.7-0.1,0.9,0.2   c0.2,0.3,0.2,0.6,0,0.9c-0.1,0.1-0.2,0.3-0.3,0.4c-0.7,0.5-1,1.2-0.9,2.1c0.1,0.7,0,1.4,0.1,2.2c0.4-0.4,0.9-0.9,1.2-1.3   c0.1-0.1,0-0.3,0-0.5c-0.2-1.2,0.5-2.2,1.6-2.4c1.1-0.2,2.1,0.6,2.3,1.7c0.2,1.4-1.1,2.5-2.5,2.2c-0.3-0.1-0.4,0-0.6,0.2   c-0.4,0.4-0.8,0.7-1.2,1.1c0,0,0.1,0.1,0.1,0.1c1.1,0,2.2,0,3.3,0c0.1,0,0.3-0.2,0.4-0.3c0.3-0.3,0.5-0.5,0.8-0.8   c0.3-0.3,0.8-0.4,1-0.1c0.3,0.3,0.4,0.6,0.1,1c0,0.1-0.1,0.1-0.1,0.2c0.8,0.1,1.1,0.3,1.1,0.8c0,0.5-0.3,0.7-1.1,0.8   c0.1,0.1,0.1,0.2,0.2,0.3c0.1,0.3,0.1,0.6-0.2,0.9c-0.3,0.2-0.6,0.2-0.9,0c-0.3-0.3-0.6-0.6-1-0.9c-0.1-0.1-0.3-0.2-0.5-0.2   c-1.1,0-2.1,0-3.3,0c0.5,0.5,1,1,1.4,1.4c0.1,0.1,0.3,0,0.4,0c1.2-0.2,2.2,0.5,2.4,1.7c0.2,1.1-0.6,2.1-1.7,2.3   c-1.4,0.2-2.5-1-2.2-2.4c0.1-0.3,0-0.5-0.2-0.7c-0.4-0.4-0.7-0.7-1.1-1.1c0,0-0.1,0-0.1,0.1c0,1.1,0,2.2,0,3.3   c0,0.2,0.2,0.3,0.4,0.5c0.2,0.2,0.5,0.5,0.7,0.7c0.3,0.4,0.4,0.7,0.1,1c-0.3,0.3-0.6,0.4-1,0.1c-0.1,0-0.1-0.1-0.2-0.1   c-0.1,0.8-0.3,1.1-0.8,1.1c-0.5,0-0.7-0.3-0.8-1.1C28,46,27.9,46,27.9,46c-0.4,0.2-0.7,0.1-0.9-0.2c-0.3-0.3-0.2-0.7,0-1   c0.3-0.3,0.6-0.6,0.9-0.9c0.1-0.1,0.2-0.2,0.2-0.4c0-1.1,0-2.2,0-3.3c0,0-0.1-0.1-0.1-0.1c-0.4,0.4-0.9,0.9-1.2,1.3   c-0.1,0.1,0,0.3,0,0.5c0.2,1.1-0.4,2.1-1.5,2.4c-1,0.2-2.1-0.4-2.4-1.4c-0.3-1,0.3-2.1,1.3-2.4c0.4-0.1,0.8,0,1.2,0   c0.1,0,0.3,0,0.4-0.1c0.4-0.4,0.8-0.8,1.3-1.3c-0.4,0-0.7,0-1,0c-0.4,0-0.8,0.1-1.2,0c-1-0.1-1.7,0.2-2.4,1   c-0.4,0.5-0.8,0.5-1.1,0.3c-0.3-0.3-0.4-0.6-0.1-1.1c-0.3-0.1-0.6-0.2-0.9-0.4c-0.1-0.1-0.2-0.3-0.2-0.5c0-0.5,0.3-0.7,1.1-0.7   c-0.1-0.1-0.1-0.2-0.1-0.2c-0.2-0.4-0.1-0.7,0.2-0.9c0.3-0.3,0.7-0.2,1,0c0.3,0.3,0.6,0.6,0.9,0.9c0.1,0.1,0.3,0.2,0.4,0.2   c1,0,1.9,0,2.9,0c0.1,0,0.2,0,0.4,0c0-0.1,0.1-0.1,0.1-0.1c-0.4-0.4-0.9-0.8-1.3-1.2c-0.1-0.1-0.3,0-0.5,0   c-1.1,0.2-2.1-0.4-2.4-1.5c-0.2-1,0.4-2.1,1.5-2.4c1.1-0.3,2.1,0.3,2.4,1.4c0.1,0.3,0.1,0.7,0,0.9c-0.1,0.4,0,0.5,0.2,0.8   c0.4,0.4,0.7,0.7,1,1.1c0,0,0.1-0.1,0.1-0.1c0-1.1,0-2.2,0-3.3c0-0.1-0.1-0.2-0.2-0.4c-0.3-0.3-0.5-0.6-0.8-0.8   c-0.3-0.3-0.4-0.6-0.2-1C27.2,30.7,27.6,30.7,28.1,31C28,31,28,31,28.1,31z M25.3,34.6c0-0.5-0.2-0.8-0.5-0.7   c-0.2,0-0.5,0.3-0.5,0.5c-0.1,0.3,0.2,0.6,0.5,0.5C25,34.9,25.2,34.7,25.3,34.6z M32.3,34.3c0,0.1,0,0.1,0,0.2   c0.2,0.1,0.4,0.4,0.6,0.4c0.3,0.1,0.6-0.2,0.6-0.5c0-0.3-0.2-0.6-0.5-0.5C32.7,33.9,32.5,34.1,32.3,34.3z M25.4,42.7   c0-0.1,0-0.2,0-0.2c-0.2-0.1-0.4-0.4-0.6-0.4c-0.3-0.1-0.5,0.2-0.6,0.5c0,0.3,0.2,0.6,0.5,0.5C25,43,25.2,42.8,25.4,42.7z    M32.3,42.4c0,0.1,0,0.1,0,0.2c0.2,0.1,0.4,0.4,0.6,0.4c0.3,0.1,0.6-0.2,0.5-0.5c0-0.3-0.2-0.6-0.6-0.5   C32.7,42.1,32.5,42.3,32.3,42.4z"></path>		<path d="M21.4,25.1c0,2-1.7,3.7-3.7,3.7c-2,0-3.7-1.7-3.7-3.7c0-2,1.7-3.7,3.7-3.7C19.7,21.4,21.4,23.1,21.4,25.1z M20,25.1   c0-1.2-1-2.2-2.2-2.2c-1.2,0-2.2,1-2.2,2.2c0,1.2,1,2.2,2.2,2.2C19,27.3,20,26.3,20,25.1z"></path>		<path d="M14.9,36.2c0.4,0,0.7,0.3,0.7,0.7c0,0.4-0.3,0.8-0.7,0.8c-0.4,0-0.7-0.3-0.7-0.7C14.2,36.5,14.5,36.2,14.9,36.2z"></path>		<path d="M16.3,30.8c0.4,0,0.7,0.4,0.7,0.8c0,0.4-0.3,0.7-0.7,0.7c-0.4,0-0.7-0.3-0.7-0.8C15.6,31.1,15.9,30.8,16.3,30.8z"></path>		<path d="M21.4,15.2c0,0.4-0.3,0.7-0.7,0.7c-0.4,0-0.8-0.3-0.8-0.7c0-0.4,0.3-0.7,0.7-0.7C21.1,14.4,21.4,14.8,21.4,15.2z"></path>		<path d="M16.3,45.2c-0.4,0-0.7-0.3-0.7-0.7c0-0.4,0.3-0.7,0.7-0.7c0.4,0,0.7,0.3,0.7,0.7C17,44.9,16.7,45.2,16.3,45.2z"></path>		<path d="M14.8,15.1c0.4,0,0.7,0.3,0.7,0.8c0,0.4-0.3,0.7-0.7,0.7c-0.4,0-0.7-0.3-0.7-0.8C14.1,15.4,14.4,15.1,14.8,15.1z"></path>		<path d="M17,25.1c0-0.4,0.3-0.7,0.7-0.7c0.4,0,0.8,0.3,0.7,0.7c0,0.4-0.3,0.7-0.7,0.7C17.3,25.8,17,25.5,17,25.1z"></path>	</g></g></svg>